<svg height="50" viewBox="0 0 85 50" width="85" xmlns="http://www.w3.org/2000/svg"><g fill="none"><path d="m27.3300283 8.66828087h8.5601983v4.89104113h-8.5601983v3.4382567h10.3541077v5.157385h-15.8201133-1.5169972v-21.54963682h6.9830028v.04842615h10.3541077v5.15738498h-10.3541077zm-27.3300283 13.48668283v-21.54963682h12.8824363c2.9978753 0 5.417847 2.43341404 5.417847 5.44794189 0 2.08232445-1.1558074 3.88619854-2.8654391 4.80629543 2.4199717.6658595 4.1898017 2.8934624 4.1898017 5.5447942 0 3.1719128-2.5644476 5.7506053-5.7188385 5.7506053zm6.86260623-16.70702181v3.51089588h2.94971672c.96317285 0 1.74575075-.78692494 1.74575075-1.75544794s-.7825779-1.75544794-1.74575075-1.75544794zm0 7.86924941v3.9951574h3.55169967c1.0956091 0 1.986544-.8958838 1.986544-1.9975787s-.8909349-1.9975787-1.986544-1.9975787zm-1.203966 32.8087167v-21.5496368h12.88243627c2.9978753 0 5.417847 2.433414 5.417847 5.4479419 0 2.0823244-1.1558074 3.8861985-2.8654391 4.8062954 2.4199717.6658595 4.1898017 2.8934624 4.1898017 5.5447942 0 3.1719128-2.5644476 5.7506053-5.7188385 5.7506053zm6.86260627-16.7070218v3.5108959h2.9497167c.9631728 0 1.7457507-.786925 1.7457507-1.755448s-.7825779-1.7554479-1.7457507-1.7554479zm0 7.8692494v3.9951574h3.5516997c1.095609 0 1.9865439-.8958838 1.9865439-1.9975787s-.8909349-1.9975787-1.9865439-1.9975787zm55.5028328-31.52542374v16.39225184h-6.9830028v-16.39225184h-5.5382436v-5.15738498h18.05949v5.15738498zm-8.0665722 32.56658594v7.7966102h-6.9830029v-7.7966102l-7.9461756-13.7530266h6.8626062l4.5750709 7.2639225 4.5750708-7.2639225h6.8626062zm-15.2903683-13.874092v12.2881356c0 5.31477-4.286119 9.6246973-9.5715297 9.6246973-5.2854108 0-9.5715298-4.3099273-9.5715298-9.6246973v-12.2881356h6.9830029v13.0145279c0 1.4406779 1.1558073 2.6029055 2.5885269 2.6029055 1.4327195 0 2.5885269-1.1622276 2.5885269-2.6029055v-13.0145279zm6.5134561-17.94188861c-2.407932-1.79176755-4.1898017-.83535109-4.7075071-.49636804s-.4093484 1.18644068-.1444759 1.44067797.601983.46004842 1.0233711.64164649c.4213881.18159806 2.48017.75060532 2.9978754.89588377 2.0708215.60532688 3.2266289 1.42857142 4.1898017 2.44552062.9631728 1.0169491 1.4447592 2.3486682 1.4447592 3.9830508 0 1.1016949-.2167139 2.1065375-.638102 3.0024213s-1.0354108 1.6585957-1.8541077 2.3002422c-.8186969.6416464-1.805949 1.1380145-2.9858357 1.4891041-1.1798866.3510896-2.5162889.5326876-4.0092068.5326876-3.0941926 0-6.0679886-1.3680387-8.5963172-3.4382566l4.0934844-3.8861986c2.8895184 2.4818402 5.0566572 1.6343826 5.5623229 1.2106538s.6983003-1.3075061.565864-1.5496368c-.1324362-.2421308-.3491501-.4600485-.6501416-.6537531-.3009915-.2058111-2.2634561-.9200968-2.9497167-1.125908-.8186969-.2300242-2.9497167-1.4043583-3.5637394-1.8644067-.6140227-.4600485-1.1076487-1.0290557-1.4929178-1.7312349-.3852692-.70217918-.5658641-1.57384988-.5658641-2.63922518s.2046743-2.03389831.601983-2.90556901c.3973088-.8716707.9631729-1.61016949 1.6855525-2.22760291.7223796-.61743341 1.6133144-1.10169491 2.6607648-1.44067796 1.0474505-.33898305 2.2514165-.49636804 3.5396601-.49636804 1.2160056 0 2.48017.14527845 3.7924929.44794189 1.3243626.2905569 2.9978754 1.51331719 3.8406516 2.34866828z" fill="#fff"/><path d="m67.904 36.32h17.096v13.68h-17.096l-3.973-4.116v-5.448z" fill="#fe0"/><ellipse cx="66.339" cy="43.22" fill="#121c1e" rx="1" ry="1"/><g fill="#fff" transform="translate(67.302 30.387)"><path d="m.626 1.816v-1.525h-.566v-.206h1.361v.206h-.566v1.525z"/><path d="m1.66147309 1.81598063v-1.73123487h.34915014l.40934844 1.22276029c.03611898.10895884.0601983.20581114.08427762.25423729.02407932-.06053269.04815864-.15738499.09631728-.27845036l.40934844-1.21065375h.30099151v1.7433414h-.21671389v-1.4527845l-.50566572 1.4527845h-.20467422l-.49362606-1.47699758v1.47699758z"/></g></g></svg>