<svg height="195" viewBox="0 0 195 195" width="195" xmlns="http://www.w3.org/2000/svg"><path d="m128.515904 79.520263c10.229307 0 16.137591 7.6686507 16.137591 18.1749291 0 10.5102729-5.908284 18.1775929-16.137591 18.1775929-10.234633 0-16.144248-7.66732-16.144248-18.1775929 0-10.5062784 5.909615-18.1749291 16.144248-18.1749291zm-32.5225909-.000263c7.2305569 0 13.8805379 3.155878 13.8805379 11.164086h-7.134681c-.242351-4.1732163-3.4461664-5.2438181-7.086745-5.2438181-2.4288278 0-5.4874998 1.0200012-5.4874998 3.9361925 0 2.6685149 1.74572 3.0799775 10.4290458 5.3157242 2.527366.6311757 10.446357 2.1598458 10.446357 10.0202464 0 6.362357-5.000136 11.114817-14.4224972 11.114817-7.6646563 0-14.8486072-3.783059-14.754064-12.326568h7.1360135c0 4.611311 3.8363229 6.403637 7.9163276 6.403637 2.6631885 0 6.9882061-.772325 6.9882061-4.314365 0-3.740448-5.2837654-4.447525-10.3824397-5.8044195-5.3463509-1.4154847-10.4956257-3.4208656-10.4956257-9.779228 0-7.0880765 6.7045769-10.4863045 12.9670645-10.4863045zm-46.3481399 1.0197311v6.1173439h-18.5118229v7.6087294h17.2627875v5.9628786h-17.2627875v8.510219h18.5118229v6.114681h-25.6451732v-34.3138519zm105.0266928 0 9.092126 15.2454223c1.171803 1.936138 3.669873 7.0947336 4.49413 8.8124906-.12517-2.977445-.264987-6.7059085-.264987-10.5062784v-13.5516345h6.993533v34.3138519h-7.323768l-9.102778-15.244091c-1.154493-1.9388012-3.659221-7.1000604-4.483478-8.8178169.129164 2.9841026.264987 6.3583624.264987 10.1627269v13.899181h-6.993533v-34.3138519zm-88.3793708.0003979c8.7405845 0 14.6062571 4.291728 14.6062571 12.0083169 0 7.7152571-5.8656726 12.0083171-14.6062571 12.0083171h-6.458232v10.295886h-7.1306871v-34.31252zm62.2234088 5.0961458c-6.499511 0-9.00424 5.9788581-9.00424 12.0589173 0 6.0800589 2.504729 12.0629119 9.00424 12.0629119 6.492854 0 9.00424-5.982853 9.00424-12.0629119 0-6.0800592-2.511386-12.0589173-9.00424-12.0589173zm-62.2234088 1.0132087h-6.458232v11.7952616h6.458232c4.4888041 0 7.4742384-1.9521171 7.4742384-5.8962992 0-3.9455137-2.9854343-5.8989624-7.4742384-5.8989624z" fill="#003f98"/></svg>