<svg height="224" viewBox="0 0 224 224" width="224" xmlns="http://www.w3.org/2000/svg" xmlns:xlink="http://www.w3.org/1999/xlink"><defs><path id="a" d="m0 0h224v224h-224z"/><mask id="b" fill="#fff"><use fill="#fff" fill-rule="evenodd" xlink:href="#a"/></mask></defs><g fill="none"><use fill="#fff" xlink:href="#a"/><path d="m2.88490855 181.453367c1.24785841.235894 2.02591151 1.343009 2.8961416 2.166655 11.84920355 11.801629 23.64984075 23.626053 35.47426545 35.426691.6591151.731469 1.5075399 1.460955 1.6254868 2.497699-.0475753 1.011964-.5897346 1.907964-1.0119646 2.802973-13.9692744-.023787-27.9127788-.023787-41.85826553-.023787 0-13.968284-.02378761-27.960354 0-41.927646.94159292-.376638 1.83759292-.966372 2.87433628-.942585zm221.44084945-181.44396415c0 12.71943365.022797 25.46265485 0 38.20587615-2.685026-2.6374514-5.300672-5.3234691-7.962903-7.9609204-.70669-.731469-1.859398-1.1081062-2.825769-.6601062-.636319.3062655-1.24885.8008496-1.531328 1.4837522-.353841 1.3667965.259682 2.7088142.80085 3.932885 1.649274 3.4868672 2.379752 7.4207433 1.885168 11.2604602-.330053 2.6146548-1.272637 5.1817345-2.686018 7.4197522-.376637.5411681-.729487 1.1061239-1.05954 1.6730619 1.365806 1.1764956 2.520496 2.5898761 3.910089 3.7445664 3.109239-3.2033982 6.312637-6.3364248 9.469451-9.5170266 0 21.2700885.022797 42.5411682 0 63.8112563-.613522.212107-1.296425.636319-1.932743.329062-.847434-.541168-1.483752-1.342017-2.190443-2.02492-7.631858-7.585274-15.193345-15.2409204-22.848-22.801416-3.038867 3.0388673-6.029168 6.100531-9.116601 9.0690266 1.626477 1.8366018 3.440283 3.4620884 5.136141 5.2283184 6.124319 6.12531 12.247646 12.249628 18.396743 18.372956.517381.542159 1.129912 1.013947 1.41239 1.720637.094159.777062-.447009 1.436177-.659115 2.142867-.306266.824638.353841 1.813806 1.225062 1.836602.777062.142726 1.437168-.376637 1.931752-.894018 2.873345-2.898123 5.770478-5.771469 8.644814-8.645805v106.587328h-106.611115l8.197805-8.174018c-9.300373-9.276752-18.589112-18.56516-27.8661943-27.865204-3.0378761 2.920921-5.9587965 5.959788-8.9738761 8.903505-.6363186.660106-1.3430089 1.295433-1.6482832 2.190442-.1417345.871221.659115 1.695859 1.5065487 1.743434.7542655-.094159 1.3895929-.589735 2.1438584-.754266.659115-.045593 1.1784779.471788 1.6482832.896 5.5127787 5.558372 11.0483543 11.071151 16.5839293 16.606726 1.388602 1.458973 2.897133 2.778195 4.191575 4.286726.589735.659115.18931 1.506548-.140743 2.166655h-63.7626905l15.0506194-15.051611c.9415929-.895009 1.9079646-1.930761 2.048708-3.297558.2121062-1.577911-1.3886018-3.156814-2.9675044-2.826761-1.3192213.258691-2.4015576 1.295434-3.768354 1.295434-.8712213-.070372-1.5313274-.70669-2.1200708-1.271646-11.9899469-11.966159-23.9551151-23.955115-35.9212743-35.922266-.8008496-.799858-1.7662301-1.57692-2.0496992-2.732601-.046584-1.364814.9187965-2.472921 1.2726372-3.720779.4470089-1.577912-1.0367434-3.298549-2.6394336-3.179611-1.1061239.070372-2.0952921.705699-2.8485664 1.483753-5.1827257 5.253097-10.45861946 10.434831-15.64134513 15.687929-.02378761-58.252885 0-116.5265843 0-174.77847815h140.74138073c11.329841 0 22.660672-.02378761 33.966725.02279646-3.133026 3.17961062-6.337415 6.33642478-9.492247 9.51702655 1.246867 1.31823004 2.566088 2.54329204 3.814938 3.83872564 2.874336-1.9783363 6.124318-3.55624777 9.65777-3.81592918 3.17961-.3300531 6.384.49458408 9.303929 1.76722128 1.107115.4707964 2.143858 1.2240708 3.391717 1.3420177 1.225062-.0703717 2.143858-1.1536992 2.56807-2.2380177.35285-.75228323.022797-1.64828323-.564955-2.19044252-2.732602-2.75539823-5.488991-5.46421239-8.197806-8.22060177 13.049487-.07037168 26.098974 0 39.125664-.02279646zm-102.84177 185.18952215c-3.462088-2.285593-7.631858-3.792142-11.824425-3.439292-3.745557.234903-7.279008 2.096283-9.8698757 4.758513.4242127.941593 1.3658057 1.506549 2.0496987 2.260814.729487-.424212 1.50754-.871221 2.378761-.777062 1.6017.116956 2.826762 1.271646 3.910089 2.331186l15.899044 15.900036c.966372.96538 1.932744 2.12007 2.167646 3.533451.140744.942584-.35384 1.791009-.777062 2.590867.70218.726628 1.416907 1.441024 2.143859 2.142868 3.155823-3.132036 4.898265-7.60708 4.828885-12.03554-.024779-3.886301-1.437168-7.655646-3.746549-10.741098-1.930761-2.614655-4.451257-4.710938-7.160071-6.524743zm-77.8576367-52.578265-.1568056.003681c-.9891681.070372-1.9079646.588743-2.6146548 1.271646-5.8656284 5.912212-11.7778408 11.777841-17.6662655 17.690053-.8246372.799858-1.7662301 1.648283-2.0724956 2.82577-.612531 1.673062 1.0129557 3.698973 2.8029734 3.392708 1.389593-.259682 2.5442832-1.414372 4.0280354-1.319221 1.0823363.259681 1.8138054 1.177486 2.5908673 1.907964 5.0875752 5.063788 10.1047788 10.152354 15.2171327 15.168567 0 .09515-.0247787.306265-.0247787.401416-1.9098006 1.827039-3.7789077 3.696146-5.6059469 5.605946 1.2726371 1.295434 2.5442832 2.56708 3.8159292 3.838726 1.8851681-1.812814 3.6989734-3.72177 5.5831504-5.535575.3062655-.329062.5887434.142726.8008496.307257 5.3938407 5.416637 10.8352566 10.811469 16.2528849 16.252884.5411682.61154 1.225062 1.271647 1.2726372 2.142868-.0247788 1.460956-1.2012743 2.591858-1.344 4.004248-.1169557 1.438159 1.2022655 2.780177 2.615646 2.732601 1.1536991 0 2.1428673-.682902 2.9437168-1.459964l18.2550089-18.256c.7304779-.753275 1.3192212-1.718655 1.3667964-2.779186.0703717-1.554124-1.4847433-2.967505-3.0388672-2.661239-1.2954336.306265-2.3559646 1.31823-3.7217699 1.31823-.8008496-.070372-1.436177-.61154-2.0021239-1.153699l-36.2741239-36.274124c-.7542655-.754265-1.6968496-1.555115-1.7910089-2.685027.0475753-1.296424.9187965-2.355964 1.2716461-3.557238.4489911-1.578903-1.0357523-3.274762-2.661239-3.179611zm79.7418137 30.29423c-3.249982 3.274761-6.54754 6.501946-9.799504 9.799504-.752283.70669-1.034761 2.120071-.045593 2.755398 1.153699.824637 2.237026-.70669 3.438301-.469805 1.201274.70669 2.049699 1.836602 3.061663 2.778195l17.171682 17.172672c.70669.729487 1.531327 1.389593 2.003115 2.30839.140743 1.083327-1.012956 1.954548-.660106 3.062654.188318.659115.918796.871222 1.50754 1.082337.588743-.258691 1.225061-.541168 1.67207-1.036744 3.157806-3.226194 6.407788-6.383009 9.563611-9.632991-4.07462-4.004248-8.078867-8.079858-12.13069-12.107894-5.300673-5.205522-10.506195-10.505203-15.782089-15.711716zm30.479859 9.941239c-.588744-.706691-1.790018-.588744-2.284602.16453-.612531.847434.046584 1.884177.353841 2.732602 1.695858 3.580036 1.342017 8.079859-1.178478 11.188106.70669.730478 1.438159 1.437169 2.12007 2.167646 2.968496-2.756389 5.747682-5.723893 8.644815-8.550654-2.519505-2.590868-5.111363-5.13416-7.655646-7.70223zm-7.820177-32.59993c-3.108248 3.109239-6.241275 6.241275-9.375292 9.351505-.517381.542159-1.129912 1.176495-1.05954 2.001132-.046584.754266.660106 1.390585 1.390584 1.460956.941593-.117947 1.742442-.966371 2.755398-.683894.589735.307257 1.012956.872213 1.50754 1.319222 6.811263 6.835546 13.634684 13.658967 20.47023 20.47023.941593 1.011964-.848425 2.190442-.18931 3.297557.447009.895009 1.813806 1.295434 2.544283.494584 3.320354-3.274761 6.595115-6.595115 9.915469-9.869876.565947-.612531 1.344-1.248849 1.344-2.167646.069381-.681911-.494584-1.271646-1.107115-1.483752-1.013947-.188319-1.813805.801841-2.827752.70669-.494584-.094159-.847433-.51738-1.224071-.824637-5.299681-5.299681-10.599362-10.599363-15.876247-15.899044-2.779186-2.708814-5.441416-5.535575-8.268177-8.173027zm-8.078868 24.684602c-1.012955-.164531-1.907964.966372-1.531327 1.932743.400425 1.129912 1.201274 2.11908 1.483752 3.320354.377628 1.178478.141735 2.450124-.376637 3.557239.754265.729487 1.484743 1.483753 2.238018 2.238018 1.425915-.726813 3.111661-.736002 4.545416-.024779 1.036743.377629 1.884177 1.296425 3.039858 1.178478.705699-.070372 1.035752-.777062 1.342018-1.295433-.330053-1.177487-1.366797-1.884177-2.166655-2.708815-2.450124-2.496708-4.947823-4.94584-7.420744-7.443539-.330053-.330054-.682902-.636319-1.153699-.754266zm-74.2223005-55.919717c-2.4263363 2.944708-4.4750443 6.242266-5.7704779 9.846089-1.8366018 4.900248-2.1666549 10.317876-1.1309027 15.428248 1.5303363 7.703221 5.8656284 14.605592 11.2356815 20.234336 5.818053 6.053947 13.0960707 11.023575 21.3642477 12.838372 5.441416 1.200283 11.2356819.87023 16.4184069-1.130903 3.438301-1.343009 6.665487-3.250974 9.445664-5.67731l-3.815929-3.792141c-1.389593.518371-2.874337 1.036743-4.381876.800849-1.695859-.259681-3.037876-1.389593-4.144992-2.591858-11.4715747-11.470584-22.94315-22.918372-34.3899464-34.389947-1.4847434-1.459965-2.2855929-3.674195-1.673062-5.700106.1179469-.753275.7294868-1.459965.4945841-2.214231-1.1774867-1.248849-2.4501239-2.425345-3.6513982-3.651398zm69.6758935 43.906974c-2.850548 2.709805-5.58315 5.559363-8.385132 8.315752.730477.70669 1.436177 1.436177 2.142867 2.165664 1.319221-.777062 2.638442-1.624496 4.145982-1.930761 2.378761-.612531 4.87646-.095151 7.042124.966371.542159.234903 1.108106.61154 1.720637.541168.871221-.376637 1.76623-1.625486.918797-2.450123-2.520496-2.543293-5.064779-5.063788-7.585275-7.608071zm-41.1743714-53.6816994c-4.828885-.9891681-9.9164602-.8246372-14.6036106.6838938-3.9566726 1.2716456-7.6318584 3.3679296-10.764885 6.0529556 0 .070372.0237876.212106.0237876.282478.9415929 1.036743 1.9783363 1.95554 2.9209204 2.967504.3062655.236885.6115398.824638 1.0833274.564956 1.1774867-.423221 2.4025487-.87023 3.6513982-.705699 1.5313275.117947 2.8733452.989168 3.932885 2.072496 11.6370973 11.659893 23.3207784 23.319787 34.9558934 34.97869 1.578903 1.508531 2.21423 3.840708 1.578903 5.913203-.118938.61154-.519363 1.1537-.519363 1.790018 1.178478 1.319221 2.520496 2.520496 3.745558 3.815929 2.849557-3.391716 5.112354-7.325593 6.361203-11.589522 1.270655-4.310513 1.458974-8.927292.61154-13.331964-1.531327-8.031292-6.053947-15.23993-11.730265-20.987611-5.795257-5.958796-13.049487-10.763894-21.2472924-12.5073274zm77.0024774 16.7474694c-2.355964 2.686017-3.933876 6.101522-4.217345 9.681557-.329062 3.414513.612531 6.807221 2.120071 9.822301-2.402549-2.332177-5.818053-3.793133-9.20977-3.227186-4.145982.518372-7.373168 3.46308-10.198938 6.313629.730478.705699 1.437168 1.436177 2.166655 2.142867.730478-.424213 1.50754-.871221 2.378761-.778053 1.483752.094159 2.591859 1.201274 3.627611 2.167646 1.765176 1.760361 3.524149 3.526933 5.276885 5.299681.847433.895009 1.813805 1.742443 2.260814 2.92092.377628 1.1537-.022797 2.331186-.636319 3.321346.730478.705699 1.460956 1.437168 2.167646 2.143858 1.95554-2.002124 3.933876-4.075611 5.205522-6.618903 1.296425-2.590867 1.483753-5.677309.660107-8.433699 1.742442 2.049699 3.838725 3.816921 6.124318 5.276885 3.155823 1.978336 6.877593 3.321345 10.669735 3.156814 3.910088 0 7.60807-1.720637 10.576566-4.16977-.682903-.753274-1.41338-1.459964-2.121062-2.167646-.917805.282478-1.883186.613523-2.82577.353841-1.036743-.282478-1.743433-1.130903-2.47292-1.837593-6.219469-6.19469-12.390372-12.413168-18.60885-18.607858-.565947-.564956-1.107115-1.201275-1.247858-2.003115-.236885-.894018.164531-1.789027.423221-2.637452-.705699-.70669-1.437168-1.41338-2.11908-2.12007zm17.312425-16.2756818c-1.767221 1.7890268-3.556248 3.5562478-5.32446 5.3224778 1.813805 2.002124 3.81692 3.839717 5.701097 5.794266-1.554123-.35285-3.109239-.729487-4.710938-.682903-4.16977-.212106-8.244389 1.50754-11.376424 4.192566.70669.706691 1.436177 1.43816 2.166654 2.120071.753275-.25869 1.577912-.494584 2.401558-.399434.872212.070372 1.60269.635328 2.215221 1.247859 6.19469 6.195681 12.390372 12.38938 18.607859 18.584071.777062.778053 1.649274 1.578902 1.884177 2.709805.212106.871221-.211115 1.718655-.330053 2.590867.589734.80085 1.390584 1.436177 2.073486 2.142867 2.520496-3.015079 4.240142-6.830017 4.216354-10.811469.09416-4.192566-1.577911-8.196814-3.956672-11.565734-2.090848-2.915048-4.683018-5.4354-7.655646-7.44354.212106-.564956.424212-1.200283.117947-1.76623-.565947-1.177487-1.484744-2.142867-2.120071-3.27377-1.224071-1.979327-2.025912-4.310513-1.719646-6.665487-.730478-.70669-1.413381-1.460955-2.190443-2.0962828zm-77.166017-1.0843186c.941592 1.1071151 2.02492 2.0487084 3.015079 3.0854514 6.406797 6.430584 12.813593 12.814584 19.196602 19.22138 1.695858 2.048708 3.227186 4.42747 3.604814 7.113487.25869 1.601699-.353841 3.155823-.801841 4.687151-.470796 1.508531 1.060531 3.155823 2.614655 2.92092 1.084319-.117947 1.979328-.847434 2.75639-1.554124 2.928523-2.873844 5.833681-5.771403 8.715186-8.692389.871221-.895009 1.695858-1.978337 1.76623-3.27377-.085101-.983685-.711718-1.837781-1.624496-2.21423-.895009-.282478-1.813805.046584-2.66223.329062-1.672071.589734-3.557239.589734-5.22931-.046584-2.396699-.897255-4.556103-2.331432-6.312637-4.192567-3.226195-3.227186-6.454372-6.430584-9.656779-9.681557-.283469-.258691-.589734-.517381-.918796-.682903-3.816921-1.860389-7.584283-3.768354-11.377416-5.605947-1.012956-.5183715-2.002124-1.0605308-3.085451-1.4133804zm33.330407-59.6414867c.305274-1.6016991-1.344-3.1320354-2.920921-2.8971327-.896.1179469-1.695858.5887433-2.332177 1.2250619-5.818053 5.7942655-11.589522 11.6123186-17.431363 17.4065841 4.641558 8.8331327 9.517027 17.5483186 14.156602 26.3814513l.330053-.0465841c-.140743.164531-.25869.329062-.400424.4945841-.259682-.2824779-.564956-.4945841-.847434-.7056991-8.834124-4.3115044-17.667257-8.5278584-26.475611-12.8383717-5.653522 5.6069381-11.2832563 11.259469-16.9367785 16.8882124-.6125309.6135221-1.2012743 1.3202124-1.436177 2.167646-.3538407 1.2488496.4470089 2.615646 1.6016992 3.1330266.9643893.3062654 2.0011327-.0703717 2.7791858-.6829027.7532743-.5411681 1.4599646-1.3905841 2.496708-1.2478584 3.1092389.3766372 5.8418405 1.9783363 8.5972385 3.3441416 17.477947 8.6438228 34.955894 17.3609908 52.457629 25.9810268.612531-.636319 1.225062-1.272637 1.860389-1.86039-.117947-.282478-.235894-.542159-.376637-.777062-8.738974-16.2290969-17.548319-32.4126014-26.287292-48.6416987 10.575575 10.5527788 21.128354 21.1293451 31.70492 31.6811327.518372.5659469 1.05954 1.2012744 1.129912 1.9783363.047575 1.6492747-1.483752 2.8743367-1.31823 4.5236107.164531 1.24885 1.388601 2.331186 2.66223 2.260814 1.153699 0 2.142867-.70669 2.919929-1.483752 6.052956-6.0301594 12.083115-12.1078939 18.138053-18.1380532.729487-.7294867 1.365805-1.6482832 1.458974-2.707823.189309-1.5551151-1.342018-3.0854513-2.896142-2.8277522-1.343009.2368849-2.426336 1.2964248-3.839717 1.2964248-.942584 0-1.601699-.777062-2.261805-1.3667965-11.988956-12.036531-24.025487-24.0254867-36.063009-36.0382301-.681912-.731469-1.530336-1.4381593-1.76623-2.4729203-.093168-1.4857346 1.084318-2.6156461 1.296425-4.0290266zm-107.2464429 37.3584425c-2.6146548 2.6146548-5.2055221 5.2293097-7.8439646 7.820177-.2586902.2824778-.4707964.5649557-.7066902.8712212 7.5376991 7.444531 14.9812389 14.9812394 22.4951504 22.4475754.3766372.424212.9187965.824637.8712213 1.460956 0 .754265-.5887434 1.366796-.6363186 2.12007-.0703717.707682.6363186 1.414372 1.3667964 1.343009.6591151.046584 1.225062-.400425 1.673062-.847433 3.1796106-3.180602 6.3364248-6.360213 9.539823-9.539823.3994336-.425204.7532743-.943576.7532743-1.556107.0237876-.8940173-.9663717-1.6482828-1.8138053-1.2716456-.8484248.3072566-1.884177 1.0367436-2.6622301.1655221-2.7553982-2.6612389-5.4176283-5.4186195-8.1502301-8.1264425-4.973669-4.9507074-9.9357122-9.913081-14.8860885-14.8870796zm-10.2465132 10.2930973c-1.7186549 1.5789027-3.2975575 3.2975575-4.993416 4.9002478 2.5680708 2.5908673 5.1579469 5.1341593 7.7260177 7.7260177.3766372.3528496.777062.8474338 1.3658054.8474338 1.0367433.117947 2.0496991-.9653807 1.7424424-2.0021241-.2824778-.7770619-.823646-1.4123893-1.271646-2.0962831-1.5313274-2.1438584-2.8257699-4.7109381-2.4491327-7.4435399-.7066903-.6125309-1.2478584-1.6016991-2.1200708-1.9317522zm31.7990796-28.9485309c-.3290619-.8008496-1.3886018-1.0843186-2.0962832-.6353275-.4004247.2349027-.7066902.5411682-1.0357522.8474336-3.0398584 3.0616638-6.1015221 6.1243186-9.1631858 9.1869735-.4945841.4945841-1.0129558 1.0823363-.9425841 1.8138053.0237876.6819115.6363186 1.3182301 1.3430089 1.2944425.8246371-.0931682 1.5313274-.7294867 2.378761-.6829027.7780531.2824779 1.2726372.9663717 1.8603894 1.5075399 6.1518174 6.1757701 12.3157939 12.3394163 18.4918938 18.4909026.2824779.3062655.540177.6353274.6591151 1.0357522.0475752.9187965-.8008496 1.6502655-.6591151 2.5918584.0931681.7998584 1.0119646 1.271646 1.7662301 1.0595399.6829027-.2121062 1.1774867-.777062 1.6720708-1.2488496 3.0388672-3.0854513 6.1243186-6.1233274 9.1869734-9.2097699.7066903-.612531.9891682-1.9069735.164531-2.5670797-1.271646-.942584-2.780177 1.2478584-3.9566725-.0237876-6.5247434-6.5009557-13.0266903-13.0247079-19.5514337-19.5504425-.3062655-.3300531-.7066902-.6829026-.6829026-1.1774867.0237876-.942584.8950088-1.7672212.5649557-2.7326017zm147.3840705 24.1672212c-1.76623 1.7662301-3.509663 3.5572389-5.323469 5.3006726.636319.823646 1.389593 1.5541239 2.167646 2.2608141 2.91993-.4945841 5.676319 1.0119646 8.008496 2.6146549.871221.5887433 1.742442 1.4837522 2.873345 1.3192212 1.225062-.1893097 1.884177-1.9317522.966372-2.8039646-2.874126-2.9203793-5.771683-5.8176057-8.69239-8.6913982zm-134.1224776-37.1701239c-.0941593-.7532743-.9415929-1.1764956-1.6254867-1.0357522-.6829026.164531-1.2012743.6829026-1.6720708 1.1774867-3.0864425 3.1092389-6.2184779 6.1709027-9.3039292 9.3039292-.7304779.6591151-1.0139469 1.9327434-.1179469 2.5680708 1.1071151.8950089 2.2142301-.7304779 3.3679292-.3528495.6363186.3766371 1.1071151.9415929 1.6492744 1.4589734 2.5195044 2.5204956 5.04 5.0657699 7.5852743 7.5614867-1.0367434 1.0139469-2.0506903 2.0496991-3.0864425 3.0626549.6591151.7294867 1.3658053 1.4133805 2.0724956 2.0962832 1.0324958-1.0088735 2.0534472-2.0294945 3.0626549-3.0616637 2.8971327 2.8495575 5.7476814 5.7466902 8.6210265 8.5972389.3062655.329062.6363186.6363186.8712212 1.0357522.2596815 1.0367434-.8474336 1.8851682-.6125309 2.9219115.1655221.4470089.5421593.7998584.9891681.9891682.8018407.1883185 1.508531-.3766372 2.0496991-.9187965 3.0616637-3.0388673 6.1243186-6.100531 9.1869735-9.1631858.4242124-.4470089.9187964-.9187965 1.0357522-1.5551151.2824779-.8474336-.5411682-1.8138053-1.436177-1.7186549-.731469.164531-1.3667965.6591151-2.1200708.7294868-.612531-.1407434-1.0595398-.6353275-1.4837522-1.0367434-6.2898407-6.2650619-12.5549027-12.5549026-18.8447434-18.842761-.3766371-.4242124-.8950088-.8722124-.7998584-1.508531.164531-.7998584.777062-1.4837522.6115398-2.3083894zm92.3355756-31.8456637c-.212107-.3538407-.588744-.1407434-.80085.0941593-5.676318 5.7001062-11.376425 11.4002124-17.076531 17.1013097-.919787.9415929-1.484743 2.4729204-.872212 3.7445664.447009.7294867 1.177486 1.436177 2.073486 1.4133805 1.554124.164531 2.707823-1.2488495 4.239151-1.271646 1.036743-.0713628 1.790018.7532743 2.47292 1.4123894 12.178266 12.1792566 24.332744 24.3565309 36.511009 36.5100177.588743.6373097 1.295434 1.3192212 1.247859 2.2380177-.023788 1.4609557-1.247859 2.5680708-1.295434 4.0042478-.117947 1.4609557 1.319221 2.7573805 2.756389 2.6384424 1.035752-.0703716 1.954549-.659115 2.708814-1.3658053 5.749332-5.7691466 11.504616-11.5323591 17.265841-17.2896283-16.398499-16.4214612-32.808651-32.8312824-49.230442-49.2294513zm-120.5308322 56.8850973c-1.4133805 1.3895929-2.7791858 2.8029735-4.1925664 4.1697699-.2824778.2824779-.5897345.5411682-.7770619.9187965.5649557.7056991 1.271646 1.3192212 1.9079646 1.9783363 2.2132389-.2596814 4.3808849.4707964 6.2412743 1.6244956 1.1081062.6125309 2.0259115 1.5313274 3.1806018 2.0496991s2.4729203-.7532744 2.1894513-1.9079646c-.2349026-.612531-.7522832-1.0367434-1.1764956-1.5075399-2.4739115-2.4263362-4.8992566-4.9220531-7.3731681-7.3255929zm37.9709735-38.0185486c-2.9912921 3.0864424-6.0539469 6.0777345-9.0690266 9.1166017-.4004248.4004248-.7304779.8950089-.7770619 1.4599646-.0941593.7314691.5649557 1.4371682 1.271646 1.508531.9187964-.0475752 1.6492743-.896 2.5908672-.6838938.6829027.3538407 1.1546903.9891681 1.7196461 1.5075398 6.1443011 6.1674281 12.3000167 12.323474 18.467115 18.4681062.4014159.4232212.8950088.9643894.612531 1.5769204-.2358938.8246371-1.0595399 1.8138053-.3062655 2.6146548.612531.8722124 1.884177.5649558 2.5204956-.1407433 3.0954208-3.0602344 6.1733228-6.1381372 9.2335578-9.2335576-5.371045-5.323469-10.6935224-10.6945132-16.0407791-16.0179823-3.4155044-3.3679292-6.7606372-6.8310088-10.2227256-10.1761415zm28.6660527 9.375292c-.564955-.6591151-1.76623-.5649558-2.190442.2121062-.494584.7542655.070372 1.6254867.330053 2.3797522.918796 1.9783363 1.271646 4.2391504.871221 6.3830088-.212106 1.5541239-1.036743 2.8971328-1.813805 4.216354.470796.8246372 1.296425 1.3895929 1.908956 2.0962832 2.717592-2.6758153 5.418201-5.3688251 8.101663-8.0788672-2.401557-2.4035399-4.828885-4.8060885-7.207646-7.2086372zm-15.1595975-7.4547052-.150703.0121565c-.8246372.1179469-1.3658053 1.0595398-1.060531 1.8366018.3766372 1.1309026 1.2250619 2.0734867 1.4133805 3.2975575.2596814 1.0843186-.0227964 2.1904425-.3300531 3.2271858.7066903.6363186 1.3905841 1.3430089 2.0734868 2.0259116 1.2954336-.7066903 2.8971327-.6591151 4.2163539-.0475753.8950084.3300531 1.6482834 1.1071151 2.6384424 1.1071151.753274.0713628 1.459965-.6353275 1.365805-1.3658053-.047575-.7304779-.683893-1.1774868-1.130902-1.6720708-2.568071-2.5204956-5.1113631-5.0885664-7.6546551-7.6318584-.4242124-.401416-.9187965-.8712213-1.5313274-.777062zm94.3277395-17.4429939c-1.05954-.1407434-1.954549.6601062-2.425345 1.5313274-.448 1.2240708.070371 2.5442832.729487 3.603823 1.296424 2.1438584 2.333168 4.5939823 2.167646 7.1600708-.071363 1.1318938-.565947 2.1448496-.942585 3.2043894 1.225062 1.4371681 2.708815 2.6850265 4.004248 4.0746195 1.108106-.4945841 2.284602-.9891682 3.509664-.9653806 2.379752-.1179469 4.640566.8246372 6.643681 2.0021239.941593.5183717 1.930761 1.1071151 3.014089 1.0833275 1.295434-.1417346 2.520495-1.3430089 2.402549-2.6850266-.212107-1.2954336-1.271646-2.1428672-2.166655-3.0150796-4.716966-4.713176-9.428238-9.4320467-14.133806-14.1566018-.777062-.7780531-1.625486-1.7424425-2.802973-1.8375929zm-98.4598939 6.1481062c-2.543292 2.6622301-5.2283185 5.1827256-7.7735929 7.8677522.6601062.612531 1.2488496 1.3192212 1.9555398 1.884177.7066903-.1179469 1.2488496-.6829027 1.9089558-.9653806 2.543292-1.3658053 5.7001062-1.2250619 8.2433982.0227965.6591151.2358938 1.2954337.7304779 2.0259115.6363186.8712213-.3062655 1.5779115-1.5779115.8008496-2.332177-2.3797522-2.3787611-4.7347257-4.7585133-7.161062-7.1134867z" fill="#f96302" mask="url(#b)"/></g></svg>