<svg height="41" viewBox="0 0 99 41" width="99" xmlns="http://www.w3.org/2000/svg"><g fill="none" fill-rule="evenodd" transform="translate(-1)"><path d="m.909.01h98.235v41.102h-98.235z"/><g fill-rule="nonzero"><path d="m1.283.302h97.803v40.276h-97.803z" fill="#039"/><path d="m2.521 1.52h95.285v37.84h-95.285z" fill="#fff"/><path d="m3.906 2.884h92.516v35.111h-92.516z" fill="#039"/></g><path d="m84.395 25.213c-.334-2.285-2.035-4.218-5.836-4.218-3.379 0-5.877 1.469-5.877 4.262 0 5.078 7.789 3.693 7.789 5.688 0 .629-.693 1.008-1.828 1.008-.418 0-.924-.128-1.238-.338-.375-.25-.629-.586-.754-1.069h-4.26c.082 2.413 2.434 4.45 6.002 4.45 3.758 0 6.381-1.512 6.381-4.576 0-4.827-7.83-3.588-7.83-5.582 0-.463.461-.755 1.406-.755.463 0 .84.082 1.178.251.334.169.564.42.605.88zm-12.909 2.122h-6.085v2.875h1.953c-.254.943-1.364 1.533-2.289 1.533-2.246 0-2.832-1.703-2.832-3.568 0-2.353.795-3.926 2.579-3.926 1.134 0 1.974.629 2.247 1.699h4.259c-.586-3.273-3.168-4.953-6.462-4.953-4.367 0-7.074 2.918-7.074 7.18 0 4.658 3.086 6.82 6.59 6.82 2.119 0 3.317-.757 4.072-1.617l.17 1.323h2.873v-7.366zm-27.662 1.531c0 4.576 2.352 6.129 6.506 6.129 4.492 0 6.529-1.867 6.529-6.129v-7.492h-4.451v7.955c0 1.426-.461 2.414-2.078 2.414-1.784 0-2.076-1.113-2.076-2.414v-7.955h-4.43zm-7.532 1.174c2.076 0 2.37.549 2.37 2.289 0 1.154.125 2.037.253 2.328h4.513v-.419c-.548 0-.504-.586-.504-2.329 0-2.664-.839-3-2.288-3.504 1.574-.44 2.288-1.744 2.288-3.232 0-2.583-1.513-3.799-6.002-3.799h-6.402v13.283h4.448v-4.617zm-1.324-5.582h2.035c1.049 0 1.784.464 1.784 1.364 0 .965-.691 1.303-2.076 1.303h-1.743zm-12.823 10.199c4.364 0 7.197-1.909 7.197-6.902 0-4.387-2.705-6.381-7.072-6.381h-5.96v13.283zm-1.384-10.199h.839c2.37 0 3.294.755 3.294 3.507 0 2.539-1.134 3.567-3.212 3.567h-.921zm61.85-18.53h-4.135v12.989h4.199v-4.113l-.148-2.958 4.742 7.072h4.072v-12.99h-4.154v4.113l.167 2.959zm-12.215-.379c-4.115 0-6.99 2.664-6.99 6.757 0 4.451 2.834 6.949 6.99 6.949 3.965 0 7.008-2.458 7.008-6.906 0-3.422-2.224-6.8-7.008-6.8zm-.042 3.212c1.953-.084 2.666 1.825 2.666 3.588 0 2.16-.713 3.734-2.623 3.734-2.078 0-2.623-2.076-2.623-3.734 0-1.638.629-3.588 2.58-3.588zm-15.111 10.156c4.281 0 7.074-1.866 7.074-6.778 0-4.302-2.668-6.211-6.99-6.211h-5.836v12.989zm-1.366-9.946h.819c2.329 0 3.253.711 3.253 3.419 0 2.458-1.133 3.483-3.168 3.483h-.904zm-14.542-3.043h-4.072v12.989h4.154v-4.113l-.166-2.958 4.783 7.072h4.093v-12.99h-4.218v4.113l.169 2.959zm-11.986-.379c-4.134 0-7.008 2.664-7.008 6.757 0 4.451 2.833 6.949 7.008 6.949 3.947 0 6.99-2.458 6.99-6.906 0-3.422-2.204-6.8-6.99-6.8zm-.041 3.212c1.953-.084 2.665 1.825 2.665 3.588 0 2.16-.711 3.734-2.624 3.734-2.076 0-2.624-2.076-2.624-3.734 0-1.638.629-3.588 2.583-3.588zm-7.136 10.156v-3.043h-5.982v-9.946h-4.387v12.989zm66.762 4.177v-.586h.504c.211 0 .506 0 .506.271 0 .274-.17.314-.4.314zm.839.295c.357-.021.545-.169.545-.546 0-.229-.041-.42-.23-.545-.145-.084-.398-.104-.564-.104h-1.01v2.075h.42v-.88h.398l.461.88h.484zm-.46 1.404c-.859 0-1.574-.69-1.574-1.573 0-.84.715-1.551 1.574-1.551s1.555.711 1.555 1.551c-.001.883-.696 1.573-1.555 1.573zm0 .38c1.07 0 1.93-.881 1.93-1.953 0-1.05-.859-1.93-1.93-1.93s-1.932.88-1.932 1.93c0 1.072.861 1.953 1.932 1.953z" fill="#fff"/></g></svg>