<?xml version="1.0" encoding="UTF-8"?>
<svg width="192px" height="192px" viewBox="0 0 192 192" version="1.1" xmlns="http://www.w3.org/2000/svg" xmlns:xlink="http://www.w3.org/1999/xlink">
    <title>tripp-lite</title>
    <g id="tripp-lite" stroke="none" stroke-width="1" fill="none" fill-rule="evenodd">
        <g id="Sennheiser-Logo" transform="translate(15.000000, 88.000000)" fill="#0089CC">
            <path d="M33,13.9995632 L33,11.9892906 C33,11.9892906 35.645776,12.01001 36.101203,11.9892906 C36.545772,11.9581958 36.7951761,11.6058897 36.469882,11.1913942 C36.1445697,10.7872739 33.9867422,8.01018396 33.4770904,7.36772991 C32.8156605,6.51801942 32.7289107,4 35.3963718,4 L42,4 L42,6.0102727 L38.7144394,6.0102727 C38.7144394,6.0102727 38.2373471,6.29006092 38.4758933,6.65272675 C38.7144394,7.00504848 41.3602335,10.3727784 41.6746877,10.8079933 C42,11.2432083 42,12.0411047 42,12.2172491 C42,12.3934281 41.5770962,14.0306406 40.0264956,13.9995632 C38.4758933,13.9788438 33,13.9995632 33,13.9995632" id="path1162" fill-rule="nonzero"></path>
            <polyline id="path1164" fill-rule="nonzero" points="45 4 54 4 54 6.0103605 49.3926047 6.0103605 49.3926047 8.13471217 54 8.13471217 54 10.0932546 49.3926047 10.0932546 49.3926047 11.9378231 54 11.9378231 54 14 45 14 45 4"></polyline>
            <polyline id="path1166" fill-rule="nonzero" points="58 14 58 4 62.6822166 4 67.0009692 10.2798015 67.0009692 4 69 4 69 14 64.3177834 14 59.9990129 7.66839949 59.9990129 14 58 14"></polyline>
            <polyline id="path1168" fill-rule="nonzero" points="73 14 73 4 77.6883495 4 82.0029276 10.2798015 82.0029276 4 84 4 84 14 79.3116505 14 74.9970903 7.66839949 74.9970903 14 73 14"></polyline>
            <polyline id="path1170" fill-rule="nonzero" points="104 4 113 4 113 6.0103605 108.3926 6.0103605 108.3926 8.13471217 113 8.13471217 113 10.0932546 108.3926 10.0932546 108.3926 11.9378231 113 11.9378231 113 14 104 14 104 4"></polyline>
            <polyline id="path1172" fill-rule="nonzero" points="137 4 146 4 146 6.0103605 141.397844 6.0103605 141.397844 8.13471217 146 8.13471217 146 10.0932546 141.397844 10.0932546 141.397844 11.9378231 146 11.9378231 146 14 137 14 137 4"></polyline>
            <path d="M126,13.9995632 L126,11.9892906 C126,11.9892906 128.645797,12.01001 129.101206,11.9892906 C129.556633,11.9581958 129.795172,11.6058897 129.469867,11.1913942 C129.155414,10.7872739 126.997602,8.01018396 126.487949,7.36772991 C125.815651,6.51801942 125.739738,4 128.407222,4 L135,4 L135,6.0102727 L131.714445,6.0102727 C131.714445,6.0102727 131.237349,6.29006092 131.475906,6.65272675 C131.714445,7.00504848 134.360242,10.3727784 134.685547,10.8079933 C135,11.2432083 135,12.0411047 135,12.2172491 C135,12.3934281 134.577112,14.0306406 133.0265,13.9995632 C131.475906,13.9788438 126,13.9995632 126,13.9995632" id="path1174" fill-rule="nonzero"></path>
            <polyline id="path1176" fill-rule="nonzero" points="87 4 91.173012 4 91.173012 7.94818259 94.80623 7.94818259 94.80623 4 99 4 99 14 94.80623 14 94.80623 10.0932546 91.173012 10.0932546 91.173012 14 87 14 87 4"></polyline>
            <polygon id="path1178" fill-rule="nonzero" points="116 4 121 4 121 14 116 14"></polygon>
            <path d="M155.194877,6.0103605 L157.943592,6.0103605 C157.943592,6.0103605 158.774362,6.16580962 158.774362,7.08807656 C158.774362,7.94818259 157.943592,8.13471217 157.943592,8.13471217 L155.194877,8.13471217 L155.194877,6.0103605 Z M151,14 L155.194877,14 L155.194877,10.0932546 L157.010257,10.0932546 L159.153845,14 L163,14 L160.80512,9.81347146 C160.80512,9.81347146 162.825648,9.1295314 162.825648,6.90154698 C162.825648,4.02072031 159.738459,4 159.738459,4 L151,4 L151,14" id="path1186" fill-rule="nonzero"></path>
            <path d="M22.5425586,15.4123133 L12.3723432,15.4123133 C12.2765973,15.5851279 11.84042,16.3735632 11.1489347,17 L24,17 L24,4.15819921 L22.5425586,4.15819921 L22.5425586,15.4123133 M1.47871469,1.62006041 L11.0957355,1.62006041 C11.4787153,1.02603531 11.712766,0.65882853 11.712766,0.65882853 C11.872346,0.432008397 12.0957441,0.226802059 12.3617065,0.0323935806 L0.0212732936,0.0323935806 L0.0212732936,12.8310047 L1.47871469,12.8310047 L1.47871469,1.62006041 M12.4042513,1.1448443 C12.4042513,1.1448443 5.54254941,11.8589569 5.54254941,11.8589569 C5.19148131,12.4097743 3.91487537,13.6734439 3.11700935,13.6734439 L0,13.6734439 L0,16.9784043 C1.87232938,16.9784043 9.38297003,16.9784043 9.36169674,16.9784043 C10.4255234,16.9459944 11.5106412,15.5743318 11.7872386,15.0343105 C11.7872386,15.0343105 18.0319099,4.98982423 18.414888,4.41739304 C18.957446,3.60736374 20.3617059,3.30494232 21.1170254,3.30494232 L24,3.27255055 L24,0.0323935806 C22.1383073,0.0323935806 14.7553206,0 14.7553206,0 C13.9574368,0 12.8297742,0.550817394 12.4042513,1.1448443" id="path1188"></path>
        </g>
    </g>
</svg>