<svg height="195" viewBox="0 0 195 195" width="195" xmlns="http://www.w3.org/2000/svg"><g fill="none" fill-rule="nonzero"><path d="m121.310719 88.3357712c4.524124 0 7.82593 3.2821383 7.82593 11.148887 0 7.7343908-3.485527 11.5562308-9.273879 11.5562308-2.132309 0-4.479342-.450132-4.479342-.450132v10.115125l-4.977684.540272v-32.5948914h3.756515l.406482 1.6185341c1.493306-.8101228 4.251414-1.9340255 6.741978-1.9340255zm20.400468 0c7.058321 0 9.77337 4.1373313 9.77337 11.4643785 0 6.8786273-2.532476 11.3759493-9.864083 11.3759493-7.328161 0-9.907715-4.497322-9.907715-11.3759493 0-7.3270472 2.941254-11.4643785 9.998428-11.4643785zm22.31633 0c7.057748 0 9.772222 4.1373313 9.772222 11.4643785 0 6.8786273-2.533624 11.3759493-9.862934 11.3759493-7.328162 0-9.90829-4.497322-9.90829-11.3759493 0-7.3270472 2.941829-11.4643785 9.999002-11.4643785zm-65.8351843 0c.3146218 0 .6791926 0 1.0403187.0456407v4.8556022c-.9042505-.1340697-1.8555796-.2704213-2.804038-.2704213-1.3595336 0-2.4446343.3154915-3.7570894.8996927v16.8602525h-4.976536v-22.0747048h3.3936668l.6791927 1.7976738h.3163442c1.311881-1.1233322 3.3930927-2.1137358 6.108141-2.1137358zm-79.2146485-8.9906515 6.1529229 22.7941173 6.1971308-22.7941173h4.9334764l6.2430609 22.7941173 6.1529229-22.7941173h4.9759619l-8.6417651 31.3814183h-5.0207437l-6.1087152-22.7952577-6.1977048 22.7952577h-5.0224662l-8.641765-31.3814183zm41.9359848-.3143505v7.6870384l-.0895639 2.8765064h.1814243c2.3062696-.8540519 4.1612751-1.2591133 6.4244852-1.2591133 4.0275034 0 6.7408293 1.7999559 6.7408293 8.6780125v13.7133248h-4.9771101v-13.3094044c0-4.1350493-2.0352815-4.6736098-4.3426993-4.6736098-1.4479492 0-2.6696923.3143504-3.9373655.6732006v17.3098136h-4.9776842v-31.2918484zm22.5746878 9.621064v22.0747048h-4.9765359v-22.0747048zm22.8468242-9.6204935v31.6946283h-4.976536v-31.2912784zm75.664819 0v31.6946283h-4.976536v-31.2912784zm-40.243457 13.1713415c-4.025207 0-5.021318 3.2827089-5.021318 7.5974685 0 4.0015503.813538 7.4639693 4.797408 7.4639693 3.979277 0 4.884101-3.282709 4.884101-7.4639693 0-4.1801195-.678044-7.5974685-4.660191-7.5974685zm22.316904 0c-4.026355 0-5.023614 3.2827089-5.023614 7.5974685 0 4.0015503.814687 7.4639693 4.797408 7.4639693 3.980425 0 4.88525-3.282709 4.88525-7.4639693 0-4.1801195-.679767-7.5974685-4.659044-7.5974685zm-45.025364.8996927c-1.266525 0-2.442912.2230691-3.664655.628701v12.9043431c1.400297.043359 2.173072.089 3.619873.089 3.074452 0 5.112604-1.617964 5.112604-8.0493121 0-4.406041-1.810223-5.572732-5.067822-5.572732zm-38.0468459-13.3521928c2.578406 0 2.9848882 1.4827529 2.9848882 3.1469277 0 1.6624632-.5425504 3.1919979-2.9848882 3.1919979-2.4446343 0-2.9418286-1.5295347-2.9418286-3.1919979 0-1.6641748.4524124-3.1469277 2.9418286-3.1469277z" fill="#000"/><path d="m135.137285 74.7687039c-3.706072-4.2914285-15.46579-.5188571-28.590271 8.5594286v2.288c11.558463-8.212 21.746445-12 24.66522-8.6211428 3.642608 4.2194285-5.421889 18.0188571-20.246178 30.8068573-14.8282904 12.789714-29.8080946 19.722857-33.4489875 15.504-1.8936302-2.191429-.3510534-6.968572 3.6408929-12.841714h-2.3207262c-4.9421918 7.368-6.7952279 13.557714-4.2572374 16.498285 4.6265868 5.358857 21.9328346-1.973714 38.6518972-16.392 16.716203-14.4182855 26.531405-30.4428569 21.90539-35.8017141" fill="#f1b310"/></g></svg>