<svg xmlns="http://www.w3.org/2000/svg">
  <symbol id="item" viewBox="0 0 32 32"><path d="M 8.5 5 L 8.1875 5.40625 L 5 9.65625 L 5 27 L 27 27 L 27 9.65625 L 23.8125 5.40625 L 23.5 5 Z M 9.5 7 L 15 7 L 15 9 L 8 9 Z M 17 7 L 22.5 7 L 24 9 L 17 9 Z M 7 11 L 25 11 L 25 25 L 7 25 Z M 12.71875 13 C 12.167969 13.078125 11.78125 13.589844 11.859375 14.140625 C 11.9375 14.691406 12.449219 15.078125 13 15 L 19 15 C 19.359375 15.003906 19.695313 14.816406 19.878906 14.503906 C 20.058594 14.191406 20.058594 13.808594 19.878906 13.496094 C 19.695313 13.183594 19.359375 12.996094 19 13 L 13 13 C 12.96875 13 12.9375 13 12.90625 13 C 12.875 13 12.84375 13 12.8125 13 C 12.78125 13 12.75 13 12.71875 13 Z M 19 18 L 18 19 L 18 21 L 20 21 L 20 19 Z M 23 18 L 22 19 L 22 21 L 24 21 L 24 19 Z M 18 22 L 18 24 L 24 24 L 24 22 Z"></path></symbol>
  <symbol id="spec" viewBox="0 0 32 32"> <path d="m6 4v24h20v-24zm2 2h16v20h-16zm2 3v2h12v-2zm0 4v2h2v-2zm4 0v2h8v-2zm-4 4v2h2v-2zm4 0v2h8v-2zm-4 4v2h2v-2zm4 0v2h8v-2z"/> </symbol>
  <symbol id="media" viewBox="0 0 32 32"> <path d="m10 2v7h2v-5h2v1h2v-1h9v1h2v-1h2v12h-2v-1h-2v3h6v-16zm4 5v2h2v-2zm11 0v2h2v-2zm-23 4v18h21v-18zm23 0v2h2v-2zm-21 2h17v9.78125l-2.59375-2.59375-.71875-.6875-2.8125 2.8125-4.28125-4.3125-.6875-.71875-5.90625 5.90625zm11.5 2c-.829 0-1.5.671-1.5 1.5s.671 1.5 1.5 1.5 1.5-.671 1.5-1.5-.671-1.5-1.5-1.5zm-5.5957031 5.125 5.0000001 5 .689453-.71875 2.09375-2.09375 3.3125 3.3125v1.375h-17v-.96875z"/> </symbol>
</svg>
