<svg height="50" viewBox="0 0 125 50" width="125" xmlns="http://www.w3.org/2000/svg"><g fill="none" fill-rule="evenodd" transform="translate(5 8)"><path d="m71.8507463 27.2686567c-6.7155134 4.9365672-16.4215288 7.5485075-24.8159204 7.5485075-11.7259159 0-22.2976029-4.3097015-30.2985075-11.5186567-.6295794-.5746269-.0786974-1.3320896.6820443-.8880597 8.630484 5.0149253 19.3071009 8.0186567 30.32474 8.0186567 7.4237901 0 15.608322-1.5410448 23.137042-4.7014926 1.1279964-.4962686 2.0723655.7313433.9706016 1.5410448" fill="#fcaf17"/><path d="m74.6313885 24.108209c-.8656716-1.097015-5.6662144-.5223881-7.8435097-.2611941-.6558119.0783582-.7607418-.4962686-.1573949-.9141791 3.8299412-2.6902985 10.125735-1.9067164 10.8602443-1.0186567.7345092.9141791-.1836273 7.1828358-3.8037088 10.1865672-.5508819.4701492-1.0755314.2089552-.8394391-.3917911.8394391-2.011194 2.6494799-6.5037313 1.7838082-7.6007462" fill="#fcaf17"/><path d="m66.9452736 3.97014925v-2.61194029c0-.39179105.3147897-.65298508.6558119-.65298508h11.7521483c.3672547 0 .6820444.26119403.6820444.65298508v2.24626865c0 .36567164-.3147897.8619403-.8919042 1.64552239l-6.0859339 8.6455224c2.2559927-.0522388 4.6431479.2873134 6.6892808 1.4365672.4721846.261194.5771145.652985.6295794 1.0186567v2.7947761c0 .391791-.4197196.8358209-.8656716.6007463-3.6200814-1.8805971-8.4206242-2.0895523-12.4079602.0261194-.4197196.2089552-.8394392-.2350747-.8394392-.6007463v-2.6380597c0-.4179105 0-1.1492537.4459521-1.8022388l7.0565355-10.08208957h-6.1383989c-.3672547-.0261194-.6820444-.28731343-.6820444-.67910448m-42.83763 16.29850745h-3.5676165c-.3410221-.0261194-.6033469-.2873134-.6295793-.6007463v-18.25746264c0-.36567164.3147896-.65298507.6820443-.65298507h3.3315242c.3410221.0261194.6295794.28731343.6558118.60074627v2.37686567h.0786975c.8656716-2.29850747 2.492085-3.36940299 4.6956128-3.36940299 2.2297603 0 3.6463139 1.07089552 4.6431479 3.36940299.8656716-2.29850747 2.8331072-3.36940299 4.9317051-3.36940299 1.495251 0 3.1478969.60074627 4.1447309 1.98507463 1.1279964 1.54104477.8919041 3.76119403.8919041 5.72014925v11.51865668c0 .3656717-.3147897.6529851-.6820443.6529851h-3.5676165c-.3672546-.0261194-.6295793-.3134328-.6295793-.6529851v-9.66417907c0-.75746268.0786974-2.6902985-.1049299-3.42164179-.2623248-1.22761194-1.0755315-1.56716418-2.098598-1.56716418-.8656716 0-1.7575757.57462687-2.1248304 1.48880597-.3672546.91417911-.3410221 2.45522388-.3410221 3.5v9.69029847c0 .3656717-.3147897.6529851-.6820443.6529851h-3.5676165c-.3672546-.0261194-.6295794-.3134328-.6295794-.6529851v-9.69029847c0-2.03731343.3410222-5.04104477-2.2035278-5.04104477-2.5707824 0-2.4658526 2.92537313-2.4658526 5.04104477v9.69029847c-.0786974.3395523-.3672546.6529851-.7607417.6529851m66.027137-19.90298506c5.2989598 0 8.1845319 4.54477612 8.1845319 10.29104476 0 5.5634329-3.1741293 10.0037314-8.1845319 10.0037314-5.1940298 0-8.027137-4.5447762-8.027137-10.1865672 0-5.69402985 2.8593397-10.10820896 8.027137-10.10820896m.052465 3.70895523c-2.6232474 0-2.8068747 3.5783582-2.8068747 5.79850746 0 2.22014927-.0262325 6.99999997 2.7806422 6.99999997 2.7806423 0 2.9118046-3.8395522 2.9118046-6.1902985 0-1.54104476-.0786974-3.36940296-.5246495-4.83208953-.4197195-1.27985075-1.2329262-1.7761194-2.3609226-1.7761194m15.0049754 16.19402983h-3.567617c-.367254-.0261194-.629579-.3134328-.629579-.6529851v-18.28358205c.026232-.33955224.341022-.60074627.682044-.60074627h3.305292c.31479.02611941.577114.23507463.629579.52238806v2.79477612h.078698c.996834-2.50746268 2.413387-3.68283582 4.87924-3.68283582 1.600181 0 3.174129.57462687 4.170963 2.14179105.944369 1.46268656.944369 3.91791044.944369 5.69402985v11.49253736c-.052465.3134328-.341022.5746268-.682044.5746268h-3.593849c-.341022-.0261194-.603347-.261194-.629579-.5746268v-9.92537318c0-1.98507463.236092-4.91044776-2.229761-4.91044776-.865671 0-1.678878.57462686-2.072365 1.46268656-.498417 1.12313433-.577114 2.22014926-.577114 3.4477612v9.82089548c-.026233.3656717-.31479.6791045-.708277.6791045m-47.6119406-8.7238806c0 1.3843284.0262325 2.5335821-.6820443 3.7873135-.5771144.9925373-1.4690186 1.6194029-2.4658526 1.6194029-1.3640886 0-2.1772953-1.0447761-2.1772953-2.5858209 0-3.0298507 2.7281773-3.5783582 5.3251922-3.5783582zm3.6200814 8.6716418c-.2360922.2089552-.5771144.2350746-.8394391.0783582-1.1804614-.9925373-1.3903212-1.4365671-2.046133-2.3768657-1.9674356 1.9850747-3.3577567 2.5858209-5.9023067 2.5858209-3.0167345 0-5.3514247-1.8544776-5.3514247-5.5373134 0-2.8992537 1.5739485-4.8582089 3.8037088-5.82462686 1.941203-.83582089 4.6431479-.99253731 6.7155133-1.22761194v-.47014925c0-.8619403.0786974-1.85447761-.445952-2.58582089-.4197196-.65298508-1.2591588-.91417911-1.9936681-.91417911-1.3640886 0-2.5707824.70522388-2.8593396 2.14179105-.052465.31343283-.2885572.62686567-.6295794.65298507l-3.4626866-.36567164c-.2885572-.07835821-.6295793-.28731343-.5246495-.73134329.7869743-4.17910447 4.590683-5.45895522 8.0009046-5.45895522 1.7313433 0 4.0135685.47014926 5.3776572 1.7761194 1.7313433 1.61940299 1.5739484 3.78731344 1.5739484 6.1119403v5.53731348c0 1.6716417.6820443 2.402985 1.3378562 3.2910447.2360923.3134329.2885572.7052239 0 .9402985-.7345093.6268657-2.046133 1.75-2.7544098 2.3768657zm-50.4450475-8.6716418c0 1.3843284.0262325 2.5335821-.6820443 3.7873135-.57711441.9925373-1.46901853 1.6194029-2.46585254 1.6194029-1.36408865 0-2.17729534-1.0447761-2.17729534-2.5858209 0-3.0298507 2.72817729-3.5783582 5.32519218-3.5783582zm3.593849 8.6716418c-.2360923.2089552-.5771145.2350746-.8394392.0783582-1.1804613-.9925373-1.3903211-1.4365671-2.046133-2.3768657-1.96743551 1.9850747-3.35775664 2.5858209-5.87607414 2.5858209-3.01673451 0-5.35142469-1.8544776-5.35142469-5.5373134 0-2.8992537 1.57394844-4.8582089 3.80370873-5.82462686 1.94120307-.83582089 4.64314789-.99253731 6.7155133-1.22761194v-.47014925c0-.8619403.0786975-1.85447761-.445952-2.58582089-.4197196-.65298508-1.25915877-.91417911-1.99366804-.91417911-1.36408865 0-2.57078246.70522388-2.85933967 2.14179105-.05246495.31343283-.28855721.62686567-.62957938.65298507l-3.46268656-.36567164c-.28855722-.07835821-.62957938-.28731343-.52464948-.73134329.78697422-4.17910447 4.59068295-5.45895522 8.00090457-5.45895522 1.73134326 0 4.01356856.47014926 5.37765716 1.7761194 1.7313433 1.61940299 1.5739484 3.78731344 1.5739484 6.1119403v5.53731348c0 1.6716417.6820444 2.402985 1.3378562 3.2910447.2360923.3134329.2885572.7052239 0 .9402985-.7607417.6268657-2.0723654 1.75-2.7806422 2.3768657z" fill="#fff"/></g></svg>