<svg height="50" viewBox="0 0 58 50" width="58" xmlns="http://www.w3.org/2000/svg" xmlns:xlink="http://www.w3.org/1999/xlink"><defs><path id="a" d="m58 50v-50h-58v50z"/></defs><g fill="none"><use fill="#f5f5f5" xlink:href="#a"/><use fill="#f00" fill-opacity=".95" xlink:href="#a"/><g fill="#fff"><path d="m29.0876994 37.1747427c11.531249 0 19.6779574-4.5580748 23.1645445-6.8201045.5952709-.3741703.2551161-.986449-.3911781-.7313329-8.895049 3.6566645-14.6606735 5.0002761-22.7733664 5.0002761s-13.8783175-1.3436116-22.7733665-5.0002761c-.64629419-.2551161-.98644903.3401548-.39117806.7313329 3.50359484 2.2620297 11.63329546 6.8201045 23.16454456 6.8201045"/><path d="m45.4258065 20.4516129c0 1.5290323 1.8903225 1.9709677 2.8580645 2.2096774.4774193.1193549 1.4451613.3548387 1.4645161.967742.0322581.6645161-.7322581 1.0225806-1.4967742 1.0225806-.8 0-1.3096774-.3225806-1.7516129-.9032258-.2064516-.2548387-.4451613-.3225806-.7483871-.2193548-.3580645.1032258-.7483871.3064516-1.1225806.5612903-.2225807.1516129-.3064517.3903226-.1870968.6774193.6129032 1.4645162 2.2451613 1.9258065 3.6548387 1.9258065 2.2258064 0 4.1677419-.9677419 4.6451613-2.9451613.4741935-1.9354839-1.1064516-2.6516129-2.5354839-3.0612903-.9354839-.2709678-1.6322581-.4903226-1.5806451-1.1225807.048387-.6612903 1.5645161-1.0870967 2.6.1193549.2580645.3064516.5290322.3419355.8354838.2225806.3225807-.1193548.8483871-.3548387 1.0193549-.4774193.3548387-.2193549.4258064-.4258065.2225806-.8-.5290323-.9516129-1.8225806-1.5806452-3.283871-1.5806452-2.7741935.0322581-4.5935483 1.4806452-4.5935483 3.4032258zm-30.7645162-4.0193548c.0483871 1.5483871.2032258 5.1387096.2032258 5.1387096h-3.6387096c.816129-1.532258 2.2451612-3.7419354 3.316129-5.1548387.083871-.1516129.1193548.0161291.1193548.0161291zm.167742-2.9419355c-.5935484.032258-1.0870968.0838709-1.5483871.6290322-1.4741936 1.7516129-4.87741939 7.0096775-7.56451617 11.7870968-.18709677.3387097-.0516129.6645161.35806452.6645161h1.97419355c.32258064 0 .54193548-.0677419.76451613-.4419354.23870967-.4096775.81612903-1.4290323 1.32580647-2.2967742h4.7096774l.0709677 2.2096774c.0161291.3225806.2032258.5290322.6290323.5290322h1.7354839s.5612903-.1387096.5419355-.5483871c-.1655218-3.9645788-.3752122-7.9271904-.6290323-11.8870967-.0322581-.4741936-.2709677-.6774194-.816129-.6774194-.516339-.0161487-1.0331687-.0053814-1.5483871.0322581zm24.132258 11.2064516c1.6483871 0 2.3645162-1.3612903 2.7903226-2.8064516.4064516-1.4451613.5774194-2.8064516-1.0903226-2.8064516-1.6677419 0-2.3645161 1.3612903-2.7741935 2.8064516-.4387097 1.4645161-.5935484 2.8064516 1.0741935 2.8064516zm-.1870968 2.0258064c-2.9612903 0-4.3225806-1.9580645-3.7258064-4.816129.6129032-2.8548387 2.8064516-4.8129032 5.7677419-4.8129032 2.9741936 0 4.3354839 1.9580645 3.7225807 4.8129032-.5935484 2.8580645-2.7870968 4.816129-5.7645162 4.816129zm-5.4806451-1.2258064c.6284135-2.4601376 1.2348892-4.9258269 1.8193548-7.3967742.1032258-.4580645-.1709677-.7645161-.5258064-.7645161-.2580645 0-1.0032258 0-1.2419355.016129-.4096774.016129-.6451613.2225806-.7483871.5612903-.016129.083871-.0516129.1709678-.1032258.3741936-.016129.0838709-.0516129.0838709-.083871.016129-.1709677-.3387097-.9354839-1.1032258-2.2612903-1.1032258-2.416129 0-4.083871 2.3290323-4.7806452 4.4870968-.4419354 1.3612903-.4774193 2.9258064.083871 3.7741935.5129032.767742 1.3290323 1.2612903 2.5870968 1.2774194 1.0548387.0193548 1.9709677-.3387097 2.432258-.9161291.0516129-.0677419.1-.032258.083871.0322581-.6129032 2.1096774-1.9032258 2.6870968-2.9064516 2.6870968-.4908452-.004538-.9696438-.1525507-1.3774194-.4258065-.3741935-.2193548-.4935483-.2354838-.8354838-.1516129-.3741936.1032258-.8161291.2709678-1.1741936.5096774-.4225806.2903226-.3387097.5806452-.1870968.8322581.8 1.2935484 2.6548388 1.616129 3.7419355 1.616129 2.6870968 0 4.5774194-1.8516129 5.4774194-5.4258064zm-5.5612903-3.516129c.5258064-1.8580646 1.4290322-2.8064517 2.6516129-2.7741936 1.5677419.0483871 1.2419355 1.5806452.9032258 2.7548387-.5290323 1.783871-1.3451613 2.7387097-2.6193549 2.6354839-1.3096774-.1193548-1.2258064-1.6322581-.9354838-2.6193548zm-.9258065-4.2225807c.1709678-.1516129.0709678-.4096774-.2032258-.4096774-1.5290323 0-2.9935484 0-4.0806452 1.0064516-.016129.016129-.0677419.016129-.0516129-.0354839l.1193549-.4935483c.0677419-.2548388-.083871-.4774194-.3741936-.4774194-.4580645 0-.9354838 0-1.4967742.0193548-.3387096 0-.5258064.1354839-.6129032.5096775-.1677419.7645161-1.3419355 6.5483871-1.683871 8.2838709-.0483871.2354839.1548388.4225807.3580646.4225807h1.8193548c.3225806 0 .4935484-.1516129.5451613-.4225807.2729073-1.2911746.5342082-2.5847752.783871-3.8806451.1870967-.9516129.5774193-1.7.9516129-1.9870968.3548387-.2741936.8483871-.4612903 1.8387096-.5129032.4387097-.0161291.6096775-.1516129.8483871-.4903226.3407084-.5660221.7587156-1.0817453 1.2419355-1.5322581z"/></g></g></svg>