<svg height="192" viewBox="0 0 192 192" width="192"
  xmlns="http://www.w3.org/2000/svg"><path d="m38.365 89-13.365 22h9.13l12.87-21.0209424zm56.635 0v-8h-26.6063348c-3.6319759.2261484-5.2086476 1.9787986-6.3911514 3.2226148-1.2669683 1.3286219-1.9708396 4.1272085-1.9708396 4.1272085v-7.2932862h-14.1618904c-1.0698844 0-2.083459.4522968-2.84364 1.5265018-.7883359 1.0459364-4.0261438 6.4169611-4.0261438 6.4169611zm72 0v-8h-28.598624c-3.620795.2261484-5.23318 1.9787986-6.421254 3.2226148-1.272935 1.3286219-1.980122 4.1272085-1.980122 4.1272085v.6501767zm-63-8h-8v8h8zm26 0h-8v8h8zm-.056245 11.2322835-7.818031-.468504v9.0118115s-.028123 2.590551-2.587262 2.590551h-13.38627s-2.277916-.192914-2.277916-2.562992v-10.2519689l-7.874276-.5511811v13.807087c1.2655087 6.614173 7.368073 7.137795 7.368073 7.137795s.618693.027559.731183.055118h18.138957s7.761787-.606299 7.761787-7.937008zm-77.943755 18.7677165h36.7539348c6.3944062-1.281337 7.0616486-7.130919 7.0616486-7.130919.3058194-1.72702.1390088-3.147633.1390088-3.147633-.1946124-1.169916-2.4187536-6.3509745-7.2006574-6.7966569-2.8635819-.2785515-28.3578014-2.3119777-28.3578014-2.3119777.5004318 2.5626741 1.6403042 3.8718663 2.4187536 4.5961002 1.779313 1.6991644 4.5872914 2.2005572 4.5872914 2.2005572.6672424.0557103 19.6558486 1.6434542 19.6558486 1.6434542.6116389.027855 1.7515113.194986 1.7237095 1.699164 0 .194986-.1668105 1.504178-1.6125024 1.504178h-27.4959467v-11.6991639l-7.6454856-.5571031c-.0278018 0-.0278018 20-.0278018 20zm78 0h28.657726c7.192749-.418502 8.212194-7.142438 8.212194-7.142438.254861-1.757709.056635-3.208516.056635-3.208516-.198225-1.5903088-2.491976-6.3891341-7.390974-6.8634366-2.888427-.2790015-29.025859-1.7856094-29.025859-1.7856094.764584 2.650514 1.812347 3.4596182 2.605248 4.185022 1.812346 1.7298091 4.502548 2.1204112 4.502548 2.1204112.67963.0558003 20.218988 1.6740088 20.218988 1.6740088.622994.0279 1.8973.0837 1.8973 1.590308 0 .446403-.226543.920705-.509722 1.171807 0 0-.67963.362701-1.330942.362701h-27.808188z" fill="#00539b"/></svg>
