<?xml version="1.0" encoding="UTF-8"?>
<svg width="192px" height="192px" viewBox="0 0 192 192" version="1.1" xmlns="http://www.w3.org/2000/svg" xmlns:xlink="http://www.w3.org/1999/xlink">
    <title>tripp-lite</title>
    <g id="tripp-lite" stroke="none" stroke-width="1" fill="none" fill-rule="evenodd">
        <g id="Corsair" transform="translate(24.000000, 78.000000)" fill="#231F20" fill-rule="nonzero">
            <path d="M21.0849896,1.42108547e-14 C21.0849896,1.42108547e-14 24.1293238,6.2115869 23.5840699,8.79596977 C23.5840699,8.79596977 31.5811269,11.3803526 32.4444455,15.6423174 C32.4444455,15.5969773 36.8064766,9.88413098 21.0849896,1.42108547e-14 L21.0849896,1.42108547e-14 Z M17.9952176,9.29471033 C18.7676606,10.9269521 19.1311632,12.6952141 19.5855414,14.5088161 L15.041759,12.7858942 C15.4506994,10.0201511 12.7698679,5.8488665 12.7698679,5.8488665 L17.9952176,9.29471033 Z M9.90728496,13.5566751 C10.407101,14.8715365 10.9977927,16.5491184 11.2704197,18 L7.18101554,17.0025189 C7.58995595,14.2367758 5,10.9269521 5,10.9269521 L9.90728496,13.5566751 L9.90728496,13.5566751 Z" id="Shape"></path>
            <path d="M18.3878433,8 C18.3878433,8 36.4177723,20.3599398 37.6257328,25.1641566 C38.5205184,28.7891566 35.9256402,32.1084337 35.9256402,32.1084337 C35.9256402,32.1084337 34.5387226,22.6746988 0,37 C3.48966368,33.2003012 5.41345264,28.3087349 4.8765813,23.0677711 C4.65288491,20.9277108 4.11601358,18.875 3.17648874,17.0406627 L11.2742981,21.189759 C11.2742981,21.3207831 11.2742981,21.4518072 11.3190373,21.5828313 C11.6322123,24.7710843 11.4085159,27.9156627 10.6479482,30.7981928 C12.3033015,27.3915663 13.1086085,23.5045181 12.705955,19.4864458 C12.4822586,17.0406627 11.8559087,14.7259036 10.8716446,12.6295181 L19.5063252,18.2635542 C19.5510645,18.5256024 19.5510645,18.8313253 19.5958038,19.0933735 C19.953718,22.6310241 19.5958038,26.0813253 18.6562789,29.2259036 C20.6695464,25.5572289 21.6985498,21.2771084 21.2511571,16.8659639 C20.9379821,13.6340361 19.953718,10.6641566 18.3878433,8 Z M40.399568,23.7228916 C40.399568,28.7891566 44.6945387,32.3268072 50.1527306,32.1084337 C53.4186979,31.9774096 55.3424869,30.7981928 56.0135761,30.4924699 L56.0135761,26.125 L55.3424869,26.125 C54.716137,28.7891566 53.0607837,31.0165663 50.1974699,31.0165663 C46.663067,31.0165663 43.933971,27.6536145 43.933971,23.7228916 C43.933971,19.7921687 46.7078062,16.4292169 50.1974699,16.4292169 C53.0607837,16.4292169 54.716137,18.6129518 55.3424869,21.3207831 L56.0135761,21.3207831 L56.0135761,16.9533133 C55.3424869,16.6475904 53.4186979,15.5120482 50.1527306,15.3373494 C44.6945387,15.1189759 40.399568,18.6566265 40.399568,23.7228916 Z M66.1246529,15.3373494 C61.3375501,15.3373494 57.6241901,19.0933735 57.6241901,23.7665663 C57.6241901,28.3960843 61.3375501,32.1957831 66.1246529,32.1957831 C70.9117556,32.1957831 74.6251157,28.439759 74.6251157,23.7665663 C74.6251157,19.0933735 70.9117556,15.3373494 66.1246529,15.3373494 Z M66.1246529,31.1475904 C63.1271213,31.1475904 61.1138537,27.6972892 61.1138537,23.7228916 C61.1138537,19.7921687 63.1271213,16.2981928 66.1246529,16.2981928 C69.1221845,16.2981928 71.135452,19.748494 71.135452,23.7228916 C71.135452,27.6536145 69.1221845,31.1475904 66.1246529,31.1475904 Z M94.1314409,18.7876506 C94.1314409,17.4337349 95.5630978,16.3418675 97.039494,16.2981928 C98.650108,16.2981928 100.260722,16.996988 101.110768,20.0542169 L101.558161,20.0542169 L101.558161,16.3855422 C100.887072,16.1671687 99.2764579,15.3373494 96.9947547,15.3373494 C94.2209195,15.3373494 91.4470842,16.996988 91.4470842,20.0978916 C91.4470842,25.6445783 99.2317186,24.5963855 99.2317186,28.3087349 C99.2317186,30.186747 98.0684974,31.060241 96.2789263,31.060241 C94.5340944,31.060241 92.5208269,29.6626506 91.8497377,26.8674699 L91.2681271,26.8674699 L91.2681271,30.8855422 C91.9839556,31.1039157 93.818266,32.1521084 96.1894477,32.1521084 C100.305461,32.1521084 102.318729,29.4879518 102.318729,27.0858434 C102.363468,21.1460843 94.1314409,22.936747 94.1314409,18.7876506 L94.1314409,18.7876506 Z M125.091021,17.3463855 C125.091021,16.996988 125.314718,16.6912651 125.583153,16.5165663 L126.656896,15.9487952 L126.656896,15.686747 L120.259179,15.686747 L120.259179,15.9487952 L121.332922,16.5165663 C121.646097,16.6912651 121.825054,16.996988 121.825054,17.3463855 L121.825054,30.1430723 C121.825054,30.4924699 121.601358,30.7981928 121.332922,30.9728916 L120.259179,31.5406627 L120.259179,31.8027108 L126.656896,31.8027108 L126.656896,31.5406627 L125.583153,30.9728916 C125.269978,30.7981928 125.091021,30.4924699 125.091021,30.1430723 L125.091021,17.3463855 Z M74.7593335,15.686747 L74.7593335,15.9487952 L75.8330762,16.5165663 C76.1462512,16.6912651 76.3252083,16.996988 76.3252083,17.3463855 L76.3252083,30.1430723 C76.3252083,30.4924699 76.1015119,30.7981928 75.8330762,30.9728916 L74.7593335,31.5406627 L74.7593335,31.8027108 L81.1570503,31.8027108 L81.1570503,31.5406627 L80.0833076,30.9728916 C79.7701327,30.7981928 79.5911756,30.4924699 79.5911756,30.1430723 L79.5911756,17.3463855 C79.5911756,17.128012 79.6806541,16.9533133 79.7701327,16.7786145 C79.8596112,16.6475904 79.9938291,16.6039157 80.1727862,16.6039157 L82.230793,16.6039157 C83.4834927,16.6039157 84.8256711,18.0451807 84.8256711,19.8358434 L84.8256711,20.753012 C84.8256711,22.5436747 83.6177106,23.7665663 82.230793,23.7665663 L80.9780932,23.7665663 C80.9780932,23.7665663 85.0046282,30.5361446 85.6309781,31.2786145 C86.5257637,32.3704819 89.478556,33.811747 91.7602592,33.3313253 C89.5232953,32.1521084 87.4205492,28.3960843 85.6757174,25.251506 C84.7361925,25.1204819 84.1098426,24.814759 83.7071891,24.5527108 C87.2415921,24.5527108 88.1363777,21.7138554 88.1363777,20.3162651 C88.1363777,16.5165663 85.4072817,15.7304217 82.3202715,15.7304217 L74.7593335,15.7304217 L74.7593335,15.686747 Z M127.999074,15.686747 L127.999074,15.9487952 L129.072817,16.5165663 C129.385992,16.6912651 129.564949,16.996988 129.564949,17.3463855 L129.564949,30.1430723 C129.564949,30.4924699 129.341253,30.7981928 129.072817,30.9728916 L127.999074,31.5406627 L127.999074,31.8027108 L134.396791,31.8027108 L134.396791,31.5406627 L133.323048,30.9728916 C133.009873,30.7981928 132.830916,30.4924699 132.830916,30.1430723 L132.830916,17.3463855 C132.830916,17.128012 132.920395,16.9533133 133.009873,16.7786145 C133.099352,16.6475904 133.23357,16.6039157 133.412527,16.6039157 L135.470534,16.6039157 C136.723234,16.6039157 138.065412,18.0451807 138.065412,19.8358434 L138.065412,20.753012 C138.065412,22.5436747 136.857451,23.7665663 135.470534,23.7665663 L134.217834,23.7665663 C134.217834,23.7665663 138.244369,30.5361446 138.870719,31.2786145 C139.765504,32.3704819 142.718297,33.811747 145,33.3313253 C142.763036,32.1521084 140.66029,28.3960843 138.915458,25.251506 C137.975933,25.1204819 137.349583,24.814759 136.94693,24.5527108 C140.481333,24.5527108 141.376118,21.7138554 141.376118,20.3162651 C141.376118,16.5165663 138.647023,15.7304217 135.560012,15.7304217 L127.999074,15.7304217 L127.999074,15.686747 L127.999074,15.686747 Z M118.33539,30.9728916 C118.111694,30.8418675 117.977476,30.6671687 117.887998,30.4924699 L111.803456,15.686747 L109.834927,15.686747 L103.750386,30.4924699 C103.660907,30.7108434 103.526689,30.8855422 103.302993,30.9728916 L102.22925,31.5406627 L102.22925,31.8027108 L107.150571,31.8027108 L107.150571,31.5406627 L106.211046,31.060241 C105.897871,30.8855422 105.674175,30.5798193 105.674175,30.186747 C105.674175,30.0557229 105.718914,29.9246988 105.763653,29.8373494 L107.105832,26.6054217 L112.832459,26.6054217 L114.174637,29.8373494 C114.219377,29.9246988 114.219377,30.0557229 114.219377,30.1430723 C114.219377,30.4487952 114.085159,30.7108434 113.861463,30.8855422 C113.816723,30.9292169 113.771984,30.9292169 113.727245,30.9728916 L112.653502,31.5406627 L112.653502,31.8027108 L119.409133,31.8027108 L119.409133,31.5406627 L118.33539,30.9728916 L118.33539,30.9728916 Z M107.508485,25.4262048 L109.879667,19.6611446 L112.250849,25.4262048 L107.508485,25.4262048 L107.508485,25.4262048 Z" id="Shape"></path>
        </g>
    </g>
</svg>