<?xml version="1.0" encoding="UTF-8"?>
<svg width="194px" height="194px" viewBox="0 0 194 194" version="1.1" xmlns="http://www.w3.org/2000/svg" xmlns:xlink="http://www.w3.org/1999/xlink">
    <g id="Costco_Wholesale" stroke-width="1">
        <polyline id="Fill-2" fill="white" points="100.3 87.332 107.271 87.07 101.424 106.341 113.928 106.341 119.776 87.07 126.588 87.332 129.365 78.182 103.077 78.182 100.3 87.332"></polyline>
        <path d="M74.407,92.336 C72.659,101.374 63.077,106.79 52.58,106.79 C42.083,106.79 34.596,101.374 36.345,92.336 C38.057,83.485 47.75,77.733 58.201,77.733 C68.652,77.733 76.12,83.485 74.407,92.336 Z M48.912,92.486 C48.291,95.698 50.511,97.901 54.3,97.901 C58.087,97.901 61.161,95.698 61.782,92.486 C62.36,89.498 60.38,86.996 56.409,86.996 C52.439,86.996 49.49,89.498 48.912,92.486 L48.912,92.486 Z" id="Fill-3" fill="white"></path>
        <path d="M70.521,104.213 C74.089,105.819 78.922,106.79 83.257,106.79 C90.696,106.79 98.824,103.466 100.125,96.743 C101.049,91.963 97.664,89.647 92.558,88.676 L89.829,88.153 C88.907,87.967 87.384,87.817 87.586,86.772 C87.811,85.614 89.473,85.277 90.568,85.277 C93.261,85.277 95.499,86.211 97.413,87.407 L102.184,80.198 C99.132,78.518 95.679,77.733 91.754,77.733 C84.269,77.733 76.108,81.468 74.814,88.153 C73.961,92.561 77.614,94.913 82.36,95.623 L84.798,95.996 C85.903,96.183 87.524,96.295 87.278,97.565 C87.033,98.835 84.991,99.246 83.759,99.246 C80.883,99.246 78.414,98.088 76.453,96.669 L75.893,96.258 L70.521,104.213" id="Fill-4" fill="white"></path>
        <path d="M153.709,78.891 C151.206,78.144 148.365,77.733 145.535,77.733 C135.449,77.733 126.282,84.306 124.692,92.523 C123.139,100.553 129.6,106.79 139.412,106.79 C141.648,106.79 146.369,106.454 148.528,105.669 L150.931,95.137 C148.612,96.743 146.135,97.752 143.26,97.752 C139.517,97.752 136.74,95.361 137.339,92.261 C137.932,89.199 141.459,86.772 145.202,86.772 C148.031,86.772 150.288,88.078 152,89.61 L153.709,78.891" id="Fill-5" fill="white"></path>
        <path d="M173.73,77.733 C163.279,77.733 153.586,83.485 151.874,92.336 C150.125,101.374 157.612,106.79 168.109,106.79 C178.606,106.79 188.188,101.374 189.936,92.336 C191.649,83.485 184.182,77.733 173.73,77.733 Z M171.938,86.996 C175.909,86.996 177.889,89.498 177.311,92.486 C176.69,95.698 173.617,97.901 169.829,97.901 C166.04,97.901 163.82,95.698 164.441,92.486 C165.019,89.498 167.968,86.996 171.938,86.996 L171.938,86.996 Z" id="Fill-6" fill="white"></path>
        <path d="M39.57,72.57 C36.449,71.667 32.905,71.171 29.376,71.171 C16.796,71.171 5.363,79.116 3.38,89.048 C1.443,98.755 9.501,106.294 21.739,106.294 C24.529,106.294 30.416,105.888 33.109,104.939 L36.106,92.208 C33.214,94.15 30.124,95.369 26.538,95.369 C21.871,95.369 18.406,92.479 19.154,88.732 C19.893,85.031 24.292,82.096 28.96,82.096 C32.489,82.096 35.304,83.676 37.439,85.527 L39.57,72.57" id="Fill-7" fill="white"></path>
        <path d="M66.778,110.081 L67.256,117.635 L67.377,117.635 C67.625,116.863 67.899,116.057 68.284,115.301 L70.888,110.081 L75.119,110.081 L75.759,117.635 L75.88,117.635 C76.101,116.896 76.349,116.124 76.687,115.402 L79.23,110.081 L84.972,110.081 L77.207,122.738 L72.392,122.738 L71.967,115.855 L71.786,115.855 C71.601,116.51 71.439,117.148 71.14,117.769 L68.664,122.738 L63.97,122.738 L61.056,110.081 L66.778,110.081" id="Fill-8" fill="white"></path>
        <polyline id="Fill-9" fill="white" points="84.568 110.081 89.887 110.081 89.077 114.344 92.462 114.344 93.272 110.081 98.591 110.081 96.186 122.738 90.867 122.738 91.702 118.34 88.318 118.34 87.482 122.738 82.162 122.738 84.568 110.081"></polyline>
        <path d="M114.168,116.443 C113.395,120.505 109.165,122.939 104.531,122.939 C99.897,122.939 96.592,120.505 97.364,116.443 C98.12,112.464 102.399,109.879 107.013,109.879 C111.627,109.879 114.924,112.464 114.168,116.443 Z M102.912,116.51 C102.638,117.954 103.618,118.944 105.29,118.944 C106.962,118.944 108.319,117.954 108.594,116.51 C108.849,115.167 107.975,114.042 106.222,114.042 C104.469,114.042 103.167,115.167 102.912,116.51 L102.912,116.51 Z" id="Fill-10" fill="white"></path>
        <polyline id="Fill-11" fill="white" points="115.376 110.081 120.897 110.081 119.264 118.676 123.898 118.676 123.126 122.738 112.971 122.738 115.376 110.081"></polyline>
        <path d="M136.958,118.206 L137.204,118.39 C138.07,119.028 139.16,119.548 140.43,119.548 C140.974,119.548 141.875,119.364 141.984,118.793 C142.092,118.222 141.376,118.172 140.888,118.088 L139.812,117.92 C137.717,117.601 136.105,116.544 136.481,114.563 C137.052,111.558 140.655,109.879 143.96,109.879 C145.692,109.879 147.217,110.231 148.565,110.987 L146.458,114.227 C145.613,113.69 144.625,113.27 143.436,113.27 C142.952,113.27 142.219,113.421 142.12,113.941 C142.03,114.412 142.702,114.479 143.11,114.563 L144.315,114.797 C146.569,115.234 148.063,116.275 147.655,118.424 C147.081,121.445 143.492,122.939 140.208,122.939 C138.294,122.939 136.161,122.503 134.585,121.781 L136.958,118.206" id="Fill-12" fill="white"></path>
        <path d="M155.924,118.155 L155.704,115.923 C155.645,115.385 155.649,114.831 155.651,114.294 L155.449,114.294 L153.708,118.155 L155.924,118.155 Z M151.117,122.738 L145.274,122.738 L152.959,110.081 L159.063,110.081 L162.078,122.738 L156.235,122.738 L156.031,121.16 L151.86,121.16 L151.117,122.738 L151.117,122.738 Z" id="Fill-13" fill="white"></path>
        <polyline id="Fill-14" fill="white" points="164.021 110.081 169.542 110.081 167.908 118.676 172.543 118.676 171.77 122.738 161.616 122.738 164.021 110.081"></polyline>
        <polyline id="Fill-15" fill="white" points="175.201 110.081 185.417 110.081 184.76 113.539 180.105 113.539 179.876 114.747 184.127 114.747 183.502 118.038 179.25 118.038 179.014 119.28 183.83 119.28 183.172 122.738 172.796 122.738 175.201 110.081"></polyline>
        <polygon id="Fill-16" fill="white" points="4.254 122.758 62.784 122.758 62.78 122.738 62.732 122.738 61.991 119.519 4.254 119.519"></polygon>
        <polygon id="Fill-18" fill="white" points="4.254 118.159 61.678 118.159 60.932 114.92 4.254 114.92"></polygon>
        <polygon id="Fill-20" fill="white" points="4.254 113.537 60.596 113.537 60.342 112.357 59.824 110.106 4.254 110.106"></polygon>
        <polyline id="Fill-22" fill="white" points="126.557 110.081 136.772 110.081 136.115 113.539 131.461 113.539 131.231 114.747 135.482 114.747 134.857 118.038 130.606 118.038 130.369 119.28 135.185 119.28 134.528 122.738 124.151 122.738 126.557 110.081"></polyline>
        <polyline id="Fill-23" fill="white" points="185.099 106.024 184.521 106.024 185.004 103.745 184.168 103.745 184.271 103.256 186.523 103.256 186.419 103.745 185.583 103.745 185.099 106.024"></polyline>
        <polyline id="Fill-24" fill="white" points="188.936 106.024 188.396 106.024 188.887 103.711 188.879 103.711 187.872 106.024 187.305 106.024 187.291 103.711 187.283 103.711 186.792 106.024 186.253 106.024 186.84 103.256 187.684 103.256 187.722 105.438 187.73 105.438 188.687 103.256 189.523 103.256 188.936 106.024"></polyline>
    </g>
</svg>
