<svg height="195" viewBox="0 0 195 195" width="195" xmlns="http://www.w3.org/2000/svg"><path d="m97.5527726 55.6291226c23.6459774 0 42.8181064 19.1747617 42.8181064 42.8260037 0 23.6433447-19.172129 42.8154737-42.8181064 42.8154737-23.6433445 0-42.8233711-19.172129-42.8233711-42.8154737 0-23.651242 19.1800266-42.8260037 42.8233711-42.8260037zm0 4.6278461c-10.5429599 0-20.090854 4.2764141-27.0036662 11.1944913-6.9154447 6.9022824-11.1892263 16.4554414-11.1892263 27.0036663 0 10.5403277 4.2737816 20.0869057 11.1892263 26.9918197 6.9128122 6.908864 16.4607063 11.193175 27.0036662 11.193175 10.5455924 0 20.0987514-4.284311 27.0010334-11.193175 6.912813-6.904914 11.177381-16.451492 11.177381-26.9918197 0-10.5482249-4.264568-20.1013839-11.177381-27.0036663-6.902282-6.9180772-16.455441-11.1944913-27.0010334-11.1944913zm-5.3013527 26.7363436 3.578815 2.8167209-8.8555599 6.9601963 1.7018785 1.3320194 8.8529275-6.9562476 3.58408 2.8088235-8.8542437 6.9680932 1.6992461 1.334652 8.8621406-6.9694095v-6.390271h6.424493v13.0411545h6.408698v5.397837h-12.833191v-6.413963l-10.5692841 8.322489-9.6597732-7.605146c-1.393882 3.348476-4.762101 5.674245-8.6410152 5.674245h-8.2672075v-18.4166165h8.2672075c4.334328 0 7.4577292 2.7561745 8.6383828 5.6926719zm31.5406931 1.9045772v13.0437865h6.406065v5.395205h-12.837139v-18.4389915zm-50.4916966 5.295172h-1.4346849v7.8289045h1.393882c2.1796681 0 4.0408099-1.184602 4.0408099-3.9157685 0-2.495562-1.6558108-3.913136-4.000007-3.913136z" fill="#007db8"/></svg>