<?xml version="1.0" encoding="UTF-8" standalone="no"?>
<!-- Created with Inkscape (http://www.inkscape.org/) -->

<svg
   xmlns:dc="http://purl.org/dc/elements/1.1/"
   xmlns:cc="http://creativecommons.org/ns#"
   xmlns:rdf="http://www.w3.org/1999/02/22-rdf-syntax-ns#"
   xmlns:svg="http://www.w3.org/2000/svg"
   xmlns="http://www.w3.org/2000/svg"
   xmlns:sodipodi="http://sodipodi.sourceforge.net/DTD/sodipodi-0.dtd"
   xmlns:inkscape="http://www.inkscape.org/namespaces/inkscape"
   width="361.05643"
   height="127.11117"
   viewBox="0 0 95.529509 33.631495"
   version="1.1"
   id="svg399"
   inkscape:version="0.92.0 r15299"
   sodipodi:docname="dixons carphone.svg">
  <defs
     id="defs393">
    <clipPath
       id="clipPath254"
       clipPathUnits="userSpaceOnUse">
      <path
         inkscape:connector-curvature="0"
         id="path252"
         d="m 56.551,719.711 h 269.292 v 93.832 H 56.551 Z" />
    </clipPath>
  </defs>
  <sodipodi:namedview
     id="base"
     pagecolor="#ffffff"
     bordercolor="#666666"
     borderopacity="1.0"
     inkscape:pageopacity="0.0"
     inkscape:pageshadow="2"
     inkscape:zoom="2.4982185"
     inkscape:cx="179.52793"
     inkscape:cy="40.24335"
     inkscape:document-units="mm"
     inkscape:current-layer="layer1"
     showgrid="false"
     fit-margin-top="0"
     fit-margin-left="0"
     fit-margin-right="0"
     fit-margin-bottom="0"
     units="px"
     inkscape:window-width="1280"
     inkscape:window-height="744"
     inkscape:window-x="-4"
     inkscape:window-y="-4"
     inkscape:window-maximized="1" />
  <metadata
     id="metadata396">
    <rdf:RDF>
      <cc:Work
         rdf:about="">
        <dc:format>image/svg+xml</dc:format>
        <dc:type
           rdf:resource="http://purl.org/dc/dcmitype/StillImage" />
        <dc:title></dc:title>
      </cc:Work>
    </rdf:RDF>
  </metadata>
  <g
     inkscape:label="Layer 1"
     inkscape:groupmode="layer"
     id="layer1"
     transform="translate(-6.9284729,-184.81385)">
    <g
       id="g498"
       transform="translate(0.26458409,-0.26457675)">
      <path
         d="m 94.465655,208.69527 c 0.115711,-1.52259 1.137003,-2.81376 2.851855,-2.81376 1.618192,0 2.794,1.25307 2.87161,2.81376 z m 5.683955,2.7746 c -0.288572,1.29046 -1.232958,1.94627 -2.582333,1.94627 -2.176639,0 -3.159125,-1.54128 -3.101622,-3.27554 h 7.457365 c 0.096,-2.40877 -0.98319,-5.70406 -4.509201,-5.70406 -2.716742,0 -4.682772,2.19604 -4.682772,5.18336 0.09701,3.04412 1.599141,5.24122 4.778727,5.24122 2.235906,0 3.815296,-1.19486 4.258736,-3.39125 z m -16.695913,3.15947 h 1.6383 v -5.6261 c 0,-1.79211 0.963083,-3.12173 2.947458,-3.12173 1.252361,0 2.023181,0.79058 2.023181,2.00449 v 6.74334 h 1.6383 v -6.55037 c 0,-2.1396 -0.809625,-3.64243 -3.429706,-3.64243 -1.425928,0 -2.543528,0.57855 -3.237441,1.81116 h -0.03845 v -1.57974 H 83.4537 Z m -9.003594,-4.97099 c 0,-2.42746 1.387122,-3.77684 3.10268,-3.77684 1.714147,0 3.101622,1.34938 3.101622,3.77684 0,2.40877 -1.387475,3.75779 -3.101622,3.75779 -1.715558,0 -3.10268,-1.34902 -3.10268,-3.75779 m -1.734256,0 c 0,2.90971 1.676753,5.20277 4.836936,5.20277 3.159831,0 4.836231,-2.29306 4.836231,-5.20277 0,-2.92805 -1.6764,-5.22181 -4.836231,-5.22181 -3.160183,0 -4.836936,2.29376 -4.836936,5.22181 m -19.816938,8.78699 h 1.637594 v -5.14491 h 0.03845 c 0.731661,1.17546 2.196394,1.56069 3.21698,1.56069 3.045178,0 4.548011,-2.37031 4.548011,-5.18336 0,-2.8127 -1.522941,-5.24122 -4.586111,-5.24122 -1.367719,0 -2.640188,0.48224 -3.17888,1.58009 h -0.03845 v -1.34867 h -1.637594 z m 7.706783,-8.8833 c 0,1.94628 -0.75177,3.8541 -2.985911,3.8541 -2.254956,0 -3.140781,-1.81151 -3.140781,-3.77648 0,-1.86937 0.847725,-3.75815 3.043767,-3.75815 2.119489,0 3.082925,1.81152 3.082925,3.68053 m -13.879689,5.0673 h 1.6383 v -4.43124 c 0,-2.52447 0.963084,-4.02695 3.60292,-4.02695 v -1.73461 c -1.772356,-0.0575 -2.870906,0.73272 -3.660775,2.33186 h -0.03845 v -2.10044 h -1.541992 z m -12.084402,-9.61425 c -0.424039,-2.92876 -2.793647,-4.47004 -5.665611,-4.47004 -4.238272,0 -6.511925,3.25578 -6.511925,7.24429 0,4.00826 2.08033,7.16809 6.358114,7.16809 3.468511,0 5.606697,-2.08069 5.95383,-5.51074 h -1.830564 c -0.173566,2.27365 -1.559983,3.96945 -3.969455,3.96945 -3.294592,0 -4.681714,-2.62078 -4.681714,-5.76156 0,-2.87126 1.387122,-5.56825 4.663017,-5.56825 1.907469,0 3.467805,0.98249 3.854097,2.92876 z"
         style="fill:#0088aa;fill-opacity:1;fill-rule:nonzero;stroke:none;stroke-width:0.35277778"
         id="path258"
         inkscape:connector-curvature="0" />
      <path
         d="M 45.203097,204.66796 H 43.56515 v 1.34867 H 43.5267 c -0.539397,-1.0982 -1.811161,-1.57974 -3.179586,-1.57974 -3.063522,0 -4.585405,2.42782 -4.585405,5.24122 0,2.8134 1.502833,5.18336 4.546952,5.18336 1.021645,0 2.486025,-0.38594 3.218039,-1.56139 h 0.03845 v 1.32362 h 1.637947 z m -7.707489,4.89444 c 0,-1.86937 0.963436,-3.68053 3.083278,-3.68053 2.196394,0 3.044119,1.88842 3.044119,3.75708 0,1.96603 -0.88653,3.77719 -3.140427,3.77719 -2.235553,0 -2.98697,-1.90817 -2.98697,-3.85374"
         style="fill:#0088aa;fill-opacity:1;fill-rule:nonzero;stroke:none;stroke-width:0.35277778"
         id="path262"
         inkscape:connector-curvature="0" />
      <path
         d="m 66.026158,196.04558 c 0.09631,2.46662 1.984375,3.37185 4.22028,3.37185 2.022828,0 4.238625,-0.77047 4.238625,-3.14043 0,-1.92687 -1.618191,-2.46627 -3.256491,-2.83245 -1.521531,-0.36583 -3.256139,-0.5588 -3.256139,-1.73426 0,-1.00188 1.137003,-1.27141 2.119489,-1.27141 1.078441,0 2.196394,0.40429 2.312105,1.6764 h 1.637947 c -0.134408,-2.42852 -1.888419,-3.12173 -4.084461,-3.12173 -1.734608,0 -3.718983,0.82868 -3.718983,2.83281 0,1.90711 1.637947,2.44686 3.256492,2.81234 1.637947,0.36689 3.255786,0.57821 3.255786,1.85032 0,1.25272 -1.387475,1.48343 -2.408414,1.48343 -1.348669,0 -2.620433,-0.46214 -2.677936,-1.92687 z m -9.235016,3.14113 h 1.637594 v -5.62645 c 0,-1.79211 0.964142,-3.12138 2.948517,-3.12138 1.252008,0 2.023533,0.78952 2.023533,2.00343 v 6.7444 h 1.636889 v -6.55143 c 0,-2.13889 -0.808567,-3.64173 -3.428647,-3.64173 -1.426281,0 -2.543528,0.57821 -3.237442,1.81116 h -0.03916 v -1.57974 H 56.79114 Z m -8.705145,-4.97134 c 0,-2.42782 1.387122,-3.77649 3.102681,-3.77649 1.7145,0 3.101622,1.34867 3.101622,3.77649 0,2.40841 -1.387122,3.75708 -3.101622,3.75708 -1.715559,0 -3.102681,-1.34867 -3.102681,-3.75708 m -1.734255,0 c 0,2.90936 1.6764,5.20206 4.836936,5.20206 3.15983,0 4.83623,-2.2927 4.83623,-5.20206 0,-2.92876 -1.6764,-5.22182 -4.83623,-5.22182 -3.160536,0 -4.836936,2.29306 -4.836936,5.22182 m -8.790164,4.97134 h 1.985081 l 2.774597,-4.12326 2.774597,4.12326 h 2.100439 l -3.854097,-5.37598 3.430058,-4.58576 h -1.965678 l -2.485319,3.48686 -2.389364,-3.48686 h -2.100086 l 3.468158,4.72052 z m -0.602544,-13.75727 h -1.637595 v 2.00342 h 1.637595 z m -1.637242,13.75727 h 1.637594 v -9.96209 H 35.321792 Z M 24.733873,186.97037 h 3.082572 c 3.372555,0 4.585758,1.98508 4.585758,5.25992 0,5.068 -3.37185,5.41514 -4.623858,5.41514 h -3.044472 z m -1.830917,12.21634 h 4.720872 c 4.586464,0 6.608939,-2.60138 6.608939,-7.20619 0,-4.43195 -2.370314,-6.55108 -6.608939,-6.55108 h -4.720872 z"
         style="fill:#ffffff;fill-opacity:1;fill-rule:nonzero;stroke:none;stroke-width:0.35277778"
         id="path266"
         inkscape:connector-curvature="0" />
      <path
         d="m 63.393377,214.62946 h 1.639006 v -5.62645 c 0,-1.79211 0.962377,-3.12103 2.946752,-3.12103 1.252361,0 2.023181,0.78952 2.023181,2.00343 v 6.74405 h 1.6383 v -6.55073 c 0,-2.13924 -0.809625,-3.64208 -3.430059,-3.64208 -1.1938,0 -2.601736,0.50095 -3.14078,1.6958 h -0.03739 v -5.26062 h -1.639006 z"
         style="fill:#0088aa;fill-opacity:1;fill-rule:nonzero;stroke:none;stroke-width:0.35277778"
         id="path270"
         inkscape:connector-curvature="0" />
      <path
         d="m 14.467016,186.77814 c 1.059744,0.97966 1.993194,2.08033 2.786239,3.28648 0.150636,-0.0755 0.304094,-0.14817 0.458611,-0.21731 v -4.49863 c -1.134886,0.34749 -2.221089,0.82621 -3.24485,1.42946"
         style="fill:#0088aa;fill-opacity:1;fill-rule:nonzero;stroke:none;stroke-width:0.35277778"
         id="path274"
         inkscape:connector-curvature="0" />
      <path
         d="m 6.9284729,210.14325 v 4.50003 c 1.1250083,-0.34537 2.2016861,-0.81879 3.2180391,-1.41569 -1.0622141,-0.97896 -1.9977808,-2.07963 -2.7922363,-3.28542 -0.1404056,0.0709 -0.2829278,0.13723 -0.4258028,0.20108"
         style="fill:#ffffff;fill-opacity:1;fill-rule:nonzero;stroke:none;stroke-width:0.35277778"
         id="path278"
         inkscape:connector-curvature="0" />
      <path
         d="m 13.480861,199.91132 0.02046,0.39617 c 0.0695,2.34527 1.063978,4.52861 2.754842,6.10905 0.947208,-2.01753 1.443919,-4.24074 1.443919,-6.48476 0,-6.76839 -4.382911,-12.63791 -10.7713635,-14.58877 v 4.50003 c 3.9913275,1.76954 6.5440275,5.66491 6.5521415,10.06828"
         style="fill:#ffffff;fill-opacity:1;fill-rule:nonzero;stroke:none;stroke-width:0.35277778"
         id="path282"
         inkscape:connector-curvature="0" />
      <path
         d="m 8.3829757,193.57653 c -0.9472083,2.01683 -1.4439194,4.24145 -1.4439194,6.48441 0,4.6676 2.0951472,9.01806 5.7495717,11.93447 l 0.08043,0.0635 c 1.490486,1.17299 3.149952,2.04223 4.943122,2.59151 v -4.50039 c -0.736953,-0.32844 -1.435806,-0.73695 -2.083153,-1.21673 -2.79153,-2.0694 -4.46158,-5.37316 -4.470753,-8.84273 l -0.01693,-0.0896 v -0.0699 c 0,-2.44228 -0.995539,-4.71241 -2.7583693,-6.35459"
         style="fill:#0088aa;fill-opacity:1;fill-rule:nonzero;stroke:none;stroke-width:0.35277778"
         id="path286"
         inkscape:connector-curvature="0" />
    </g>
  </g>
</svg>
