<svg height="192" viewBox="0 0 192 192" width="192" xmlns="http://www.w3.org/2000/svg"><path d="m39.1193875.07177265v12.02118225c.0271263 5.6184352-3.2801114 8.4267441-8.770339 8.4267441-5.4899677 0-8.7979852-2.8083089-8.7708589-8.4267441v-12.01105707s2.4838158-.00126175 4.2818581-.0015141l.5696005-.00004362-.0020795 12.58118249c-.008838 2.1442011 1.1411439 4.1671597 3.9214798 4.1671597 2.7792961 0 3.9310976-2.0229586 3.9209599-4.1671597l-.004679-10.50084789c0-1.1547895.9251324-2.08890206 2.0670561-2.08890206zm77.6830055.00459527v16.33710418h8.150731l-.943849 3.6253329h-12.045696v-17.87015995c0-1.15504913.924093-2.08968093 2.066536-2.08968093zm15.169077 0v16.33710418h8.150731l-.943069 3.6253329h-12.049075v-17.87015995c0-1.15504913.925392-2.08968093 2.069135-2.08968093zm-22.773228-.00010384v3.62221744h-8.368302v4.20324688h6.768621v3.6240348h-6.768621v4.8878647h8.841656l-.949047 3.6250732h-10.8036953c-1.0790178-.0687993-1.9344858-.9759113-1.9344858-2.0857866l-.0093579-17.87665042zm-16.5985744-.00436162v3.61494809h-2.9633348c-3.5406653 0-6.954479 1.11610613-6.954479 6.31785135 0 5.2030432 3.4138137 6.3892468 6.954479 6.3892468h2.9633348v3.6427274l-5.2952714.0018173c-5.4364197-.0197311-9.5752107-3.7787682-9.5493383-9.9831656.0281954-6.22257084 4.1360534-9.98342534 9.590669-9.98342534zm-82.83594451-.00049328c5.45669521 0 9.56117391 3.76137374 9.59014671 9.98394452.0256149 6.2043974-4.113696 9.9634346-9.55037564 9.9831657l-8.97084639-.0018173v-17.87613123c0-1.15478951.92513235-2.08916169 2.06757591-2.08916169zm41.56797161.00028559c4.0777047 0 7.5219316 3.29301935 7.5219316 7.36801398 0 2.60372845-1.2313436 5.47642305-4.5853708 6.39573735l3.8253014 5.7290332 5.9339481-17.36961264c.462956-1.37832228 1.1798751-2.12317189 2.8133485-2.12317189h4.2739606l6.7257304 19.96685063h-5.3168466l-1.0132526-3.4552819h-7.5879568l-1.0148122 3.4552819h-9.3443825l-4.9391514-8.516313c2.3418144-.1412333 5.7813623-.4073437 5.7813623-4.08252365 0-1.19451136-.6022848-3.70555545-4.6025269-3.70555545h-2.8616976v16.3043921h-4.8203581l-.0007798-17.87820819c0-1.15427027.9251324-2.08864244 2.0675759-2.08864244zm-43.85831751 3.61518174h-1.78423951v12.70709809h1.78423951c3.53910561 0 6.95265941-1.1862035 6.95265941-6.3892468 0-5.20174515-3.4135538-6.31785129-6.95265941-6.31785129zm60.24166011-.53505074-3.0244212 10.31677733h6.0506619z" fill="#110f0f" transform="translate(25 87)"/></svg>