<svg height="195" viewBox="0 0 195 195" width="195" xmlns="http://www.w3.org/2000/svg"><path d="m44.7290204 75.2677653v44.7321427h-44.72908162v-44.7321427zm-38.06785713 23.4303061h-4.23612245c.40224489 10.3432656 9.28867348 18.8917346 19.93193878 18.9058166 1.3527551 0 2.9494898-.191327 4.2153061-.45 0-10.124082-9.797449-18.4558166-19.91112243-18.4558166zm22.00775513-20.0130612v37.8912248c8.0638775-2.761837 13.6622449-10.23949 13.6405732-18.9502044-.0217977-8.8552041-5.7346549-16.3506122-13.6405732-18.9410204zm58.5649542 13.3149898c4.6783503 0 7.7661274 3.6244139 7.7661274 8.147468 0 0 0 .705371-.0622463 1.34673h-12.226017c.1244926 2.566049 1.9646497 4.234074 4.7402973 4.234074 1.903002 0 3.0566539-.641667 4.2423268-1.860371l2.2453568 2.24537c-2.0274947 2.213056-4.2417283 2.886729-6.6121762 2.886729-4.9276349 0-8.3275414-3.271728-8.3275414-8.339507v-.128641c0-5.1958032 3.5243991-8.531852 8.2338726-8.531852zm18.4002734 0c2.363234 0 4.538097.7959968 6.365854 2.7698002l-2.33209 2.4512182c-1.071256-1.1142734-2.331788-1.7508265-4.033764-1.7508265-2.772929 0-4.884297 2.1329416-4.884297 5.0298081 0 2.896561 2.111368 5.029808 4.884297 5.029808 1.701976 0 2.962508-.636553 4.033764-1.751132l2.33209 2.451829c-1.827757 1.973498-4.00262 2.769495-6.365854 2.769495-4.789961 0-8.634146-3.597258-8.634146-8.5 0-4.9027418 3.844185-8.5 8.634146-8.5zm37.86645 0c4.696968 0 8.499404 3.6916635 8.499404 8.499847 0 4.805728-3.802436 8.500153-8.499404 8.500153-4.729438 0-8.500596-3.694425-8.500596-8.500153 0-4.8081835 3.771158-8.499847 8.500596-8.499847zm21.42887 1v9.098928c0 2.443024 1.525222 3.496468 3.570847 3.496468 2.046877 0 3.572412-1.053444 3.572412-3.52868v-9.066716h3.927275v9.314866c0 4.519191-3.440043 6.685134-7.531606 6.685134-4.059019 0-7.468394-2.135222-7.468394-6.591779v-9.408221zm-95.1950113-7v3.5646063h-9.9183914v5.2032538h9.3241343v3.5743456h-9.3226012v2.8031103c0 2.699933 1.9400749 3.29373 3.15312 3.29373h7.0292836v3.560954h-7.0611735c-.4173292 0-.8171803-.029218-1.2075257-.072437h-.0699126c-.0692994-.001217-.1444248-.014913-.2210833-.033783-3.8148367-.532317-5.4403049-3.123291-5.4403049-6.910381v-14.983399zm6.2655453 0v22h-4v-22zm41.632893 0v6.0908475h3.299129v3.4408938h-3.304089v5.6165877c.004376 2.699235 1.85029 3.29244 3.00446 3.29244h.367607l-.013421 3.559231h-.384237c-.397657 0-.777518-.029204-1.14921-.072097h-.066519c-.066228-.001217-.137415-.015211-.210353-.034072-3.504231-.513806-5.062477-2.948989-5.166049-6.522518l-.010211.000609v-15.371922zm15.18757 6c.425935 0 1.01523.0618027 1.179537.092404v3.611258c-.458481-.0942041-1.01681-.1560068-1.639914-.1560068-2.720551 0-4.457786 1.6188708-4.457786 4.2025839v8.2497609h-3.9023v-15.6891864h3.9023v2.3332021c.786148-1.6170708 2.556244-2.6440157 4.918163-2.6440157zm25.179537-6v22h-4v-22zm24.558341 6.0076679 3.381333 4.7296604 3.352-4.7296604h4.026963l-2.467556 3.4249057-2.880888 3.9987924 2.326814 3.314415 3.544297 5.048755h-3.966223l-3.935407-5.576151-3.934518 5.576151h-3.965926l2.667851-3.785057 3.204445-4.5473205-3.057778-4.2608302-2.291852-3.1936604zm-39.057745 3.4618576c-2.750622 0-4.820887 2.1959139-4.820887 5.0303215 0 2.83318 2.070265 5.030321 4.820887 5.030321 2.720536 0 4.820886-2.197141 4.820886-5.030321 0-2.8344076-2.10035-5.0303215-4.820886-5.0303215zm-56.2667234-.1974894c-2.3390255 0-4.2728514 1.5713897-4.4287665 3.528087h8.3897878c0-1.9243831-1.7779108-3.528087-3.9610213-3.528087zm-64.876893-17.6005973c-10.6392857 0-19.23551021 8.5215306-19.92918368 18.9104081l4.23.0058164c10.11551018 0 19.91632648-8.3393878 19.91632648-18.4735715-1.267653-.252551-2.7887755-.442653-4.2171428-.442653z" fill="#000d43" fill-rule="evenodd"/></svg>