<svg height="195" viewBox="0 0 195 195" width="195" xmlns="http://www.w3.org/2000/svg"><path d="m90.2449524 101.190095c-5.4540953 2.649143-12.3725714 7.386286-12.3725714 12.590857 0 1.93181.9660952 3.147429 2.7737142 3.147429 5.3291429 0 8.6015238-8.476571 9.5988572-15.738286zm1.4331428-22.6879998c0-.592-.3424762-.8411428-.8411428-.8411428-2.5558095 0-6.1710476 6.6693333-6.1710476 10.6582857 3.9893333-2.1817143 7.0121904-7.1367619 7.0121904-9.8167619zm21.4727618.4986667c0-.592-.124571-1.3398095-.872762-1.3398095-1.807238 0-4.705905 3.8952381-4.705905 8.8506666 3.61562-3.1474285 5.578667-5.8278095 5.578667-7.5104761zm8.944 30.5417141c0 5.453714-4.705524 11.156572-11.624 11.156572-8.352 0-12.590857-7.043048-12.590857-13.338286 0-8.8506668 6.046095-12.5904763 8.601524-13.9306668-.498286-.3737142-.872381-.8411428-1.215619-1.4643809-2.929143 2.0563809-5.578286 3.8952381-11.1565717 7.0430476-.2495238 3.8643811-.5923809 8.1028571-1.5893333 11.0323811-2.0571429 6.170286-6.2952381 10.657905-11.8739048 10.657905-4.7059047 0-7.0121904-3.396953-7.0121904-7.043048 0-2.648762 1.5584762-6.045714 4.3634285-8.601143 3.5215238-3.147809 7.3859048-5.0799999 12.7150477-7.8849522.1245714-.7165715.2491428-1.4335238.3737142-2.3059048-1.3398095 1.2148571-3.272 1.7139048-4.8613333 1.7139048-2.5245714 0-4.6125714-2.1813334-5.08-4.4876191-3.3969524-.2495238-5.9523809-2.6803809-6.0769524-6.5447619 0-2.7737143 1.0902857-5.2045714 2.9295238-5.2045714.7165715 0 .9657143.5923809.9657143 1.0910476 0 .4674286-.6232381 2.0567619-.6232381 3.6152381 0 1.5889524.7478095 3.6460952 2.680381 3.6460952 0-6.2952381 4.6121905-14.4293333 10.0659047-14.4293333 3.6152381 0 4.1139048 2.68 4.1139048 3.895619 0 5.7032381-5.7028571 11.9984762-10.3154286 13.5565715.1245715.4982857.6228572 1.8388571 2.088 1.8388571 1.8072381-.0003809 3.9889524-1.7142857 5.08-3.0544762.4674286-2.5241904 2.3059048-6.1702857 4.7367619-6.1702857.9660953 0 1.4335238.7169524 1.4335238 1.5893333 0 1.8072381-1.9321904 4.1135239-3.3969523 5.672-.2182858 1.2152381-.3428572 2.5554286-.3428572 3.6460953 4.2384762-2.5554286 6.4201904-3.864381 9.5676194-6.1706667-.249143-.8415238-.249143-1.8384762-.249143-2.8045714 0-5.672 3.770666-11.9984762 8.726095-11.9984762 2.804571 0 4.238476 1.9634286 4.238476 4.1451429 0 4.1135238-3.521905 7.7283809-8.476952 11.4998095.374095.9657143.966095 1.8072381 1.93219 2.3059047.124953-.2495238 1.714286-.4986666 3.022857-.4986666 1.465143 0 3.521905.3740952 3.521905 1.8388571 0 1.6826667-2.306285 2.0567619-4.113905 2.0567619-.966095.1245715-2.555428-.2491428-2.555428-.2491428-2.649143.7161904-7.760381 3.7706666-7.760381 11.4994283.000381 5.23581 3.272762 10.066286 8.383619 10.066286 3.864381 0 7.01181-2.898286 7.136381-7.385905.000381-2.898666-1.215238-5.952762-4.113524-5.952762-1.464762 0-2.773714 1.091048-2.773714 2.680381-.124572 2.430476 1.683047 2.68 1.683047 4.238476 0 1.090667-.841523 1.589334-1.683047 1.589334-2.430476 0-4.269714-2.430857-4.269714-5.453715 0-3.646476 3.179047-6.6693329 7.292952-6.6693329 5.329143 0 8.102476 4.6121909 8.102476 9.5676189zm14.679238-11.7934016c0-13.7774402-7.043809-28.0199065-22.189714-32.5814101-3.14781-.9619136-5.796571-1.5824541-8.851048-1.5824541-7.0118092 0-7.260952 3.9716867-10.533333 3.9716867-1.807619 0-3.0232381-1.3032868-3.0232381-2.8857409 0-2.7617086 3.272381-4.9336003 8.4769521-4.9336003 4.861715 0 8.601524 1.2099781 9.318096 1.5513512l.124952-.3413731c-1.308952-.4965083-5.921524-2.0789624-12.3413334-2.0789624-13.9619048 0-28.1417143 7.1369743-32.7230476 22.0932897-.9657143 3.1341846-1.5889524 5.8025846-1.5889524 8.812737 0 7.0125627 3.9889524 7.3539358 3.9889524 10.6117739 0 1.706865-1.3089524 2.916843-2.8986667 2.916843-2.7733333 0-4.9550476-3.165287-4.9550476-8.4709843 0-4.8095681 1.2152381-8.5642932 1.4335238-9.2781424l-.3424762-.1240322c-.3744762 1.4584218-1.9638095 5.9266168-1.9638095 12.3190183 0 13.9944016 7.168 28.1128356 22.1893333 32.7050636 3.1478095.961913 5.8281905 1.55173 8.8510476 1.55173 7.0430476 0 7.2609524-4.096098 10.5337143-4.096098 1.713905 0 3.053714 1.334389 3.053714 3.010152 0 2.6684-3.178666 4.840671-8.5078092 4.840671-4.8304762 0-8.7260953-1.210357-9.3184762-1.458422l-.1241905.372097c1.3401905.589438 5.9523809 1.923827 12.3721905 1.923827 13.9306664 0 28.2350474-7.012562 32.7230474-22.093289.966095-3.009774 1.558095-5.771482 1.558095-8.688326 0-7.105492-3.989333-7.3539357-3.989333-10.6117733 0-1.8001743 1.215619-3.0101524 2.898667-3.0101524 2.804571 0 4.986285 3.2582169 4.986285 8.5642937.000381 4.716259-1.215619 8.440261-1.464761 9.278142l.373714.123653c.467809-1.427319 1.932952-5.895514 1.932952-12.4115686zm3.009309.1690208c0 23.0304758-18.717173 41.6670478-41.8476354 41.6670478-23.1304628 0-41.8786257-18.636191-41.8786257-41.6670478 0-23.0308571 18.7481629-41.6982857 41.8786257-41.6982857 23.1304624 0 41.8476354 18.792 41.8476354 41.6982857zm2.109466 0c0-24.1215238-19.719317-43.7554285-43.9462439-43.7554285-24.2269273 0-43.9466261 19.6339047-43.9466261 43.7554285 0 24.2148568 19.7196988 43.7550478 43.9466261 43.7550478 24.2269269 0 43.9462439-19.540191 43.9462439-43.7550478z" fill-rule="evenodd"/></svg>