<svg height="195" viewBox="0 0 195 195" width="195" xmlns="http://www.w3.org/2000/svg"><path d="m97.9999074 138c-.3975917 0-.7935167-.007222-1.1887009-.018704l8.1746105-22.466244h11.249974c1.974625 0 4.142213-1.517959 4.817582-3.372585l8.868868-24.3603137c1.450922-3.9883241-.833517-7.2512795-5.077396-7.2512795h-15.607186l-13.0953399 35.9843612h-.0048148l-7.4238717 20.398656c-17.6129222-4.187212-30.7136326-20.019953-30.7136326-38.9137984 0-18.3492168 12.3557121-33.8110329 29.200488-38.5234294l-7.6601675 21.0542106h-.0022222l-12.7346002 34.9841782 8.4773878.000741 10.8297898-29.7278944h6.3710963l-10.8297897 29.7278944 8.4742396.001481 10.0921991-27.7351207c1.451848-3.9883241-.8327761-7.2512795-5.0727662-7.2512795h-7.1260947l8.1825737-22.4888369c.5964801-.0264814 1.1951824-.0420369 1.7977736-.0420369 22.0914306 0 39.9999076 17.9084771 39.9999076 40.0000926 0 22.0910604-17.908477 39.9999074-39.9999076 39.9999074zm24.2021666-52.2333976h-6.36943l-8.919794 24.4736466h6.369615z" fill="#4987ce"/></svg>