<svg height="195" viewBox="0 0 195 195" width="195" xmlns="http://www.w3.org/2000/svg"><g fill="none" fill-rule="nonzero"><path d="m183.970625 94.4052049-6.259925 5.6967621 6.259925 5.731611v3.300883h-.204581l-9.290527-8.434743v8.017841h-2.693635v-24.272949h2.693635v15.1606437l9.249062-8.4177504h.246046zm-121.4628021 14.3123541h13.7442017v-2.711873h-10.9454026v-20.7642448h-2.7987991zm23.2463059-17.4943365c-4.2226164 0-8.0643002 3.429396-8.0643002 8.9535605 0 5.365043 3.5236972 8.921836 8.5716266 8.921836 2.2537512 0 4.3490088-.567777 6.221952-1.93302v-2.896344c-1.9681128 1.650751-4.1621616 2.348676-6.1309008 2.348676-3.0413484 0-5.7254933-1.881187-5.9725375-5.404637h12.8343319c.031968-.348588.0992952-1.099958.0992952-1.3858483 0-5.6513016-3.4007976-8.6042232-7.5594672-8.6042232zm.027216 2.4497136c2.3814 0 4.8031344 1.5422184 4.8976848 5.1935616h-10.2990607c.1589925-2.8254024 2.3210712-5.1935616 5.4013831-5.1935616zm45.1979352-2.4497136c-2.285719 0-3.936478 1.2069936-4.920286 2.9845152-.826437-1.9046664-2.349547-2.9845152-4.79489-2.9845152-2.127103 0-3.713911 1.2385944-4.571323 2.8893456h-.063936l-.315612-2.5398864h-2.127233v17.1448773h2.729232v-10.8271293c0-2.095632 1.301789-4.0638744 3.681936-4.0638744 2.318825 0 3.334608 1.3657464 3.334608 3.84156v11.0494437h2.729102v-11.0175981c0-2.0004624 1.334888-3.8734056 3.652589-3.8734056 2.348302 0 3.364078 1.3657464 3.364078 3.84156v11.0494437h2.731485v-11.4299997c0-3.5880192-1.683856-6.0643368-5.429743-6.0643368zm16.455953 0c-4.094727 0-7.905809 3.4609968-7.905809 8.9535605 0 5.428612 3.811082 8.921836 7.905809 8.921836 2.571861 0 4.985229-1.207001 6.285895-3.588645h.031968l.31811 3.207708h2.223029v-17.1450003h-2.223029l-.31811 3.2068368h-.031968c-1.300536-2.3493024-3.714034-3.556296-6.285895-3.556296zm.508579 2.5398864c3.237552 0 5.682895 2.6034624 5.682895 6.3819501 0 3.777358-2.445343 6.381447-5.682895 6.381447-3.174862 0-5.68291-2.572114-5.68291-6.349723 0-3.8418053 2.508048-6.4136741 5.68291-6.4136741zm19.990382-2.3811408c-1.49351 0-3.747261.6987888-4.922532 2.9211984h-.030744l-.286135-2.7304848h-2.18993v17.1448773h2.729109v-9.8740437c0-3.9685752 3.206837-5.1983064 5.84252-4.658256v-2.7081216c-.348833-.063216-.698919-.0951696-1.142302-.0951696zm-57.265783-.1944648h-.217569l-7.164418 7.1446896-7.1503056-7.1446896h-.2175696v3.4622496l5.5114202 5.5151641-5.5114202 5.478321v3.491223h.2206872l7.11409-7.177162 7.192893 7.177162h.222192v-3.518079l-5.559876-5.503176 5.559876-5.5985971z" fill="#32323c"/><path d="m40.8343346 80.3599996h-28.4743346v6.9298629l2.6092454 10.3052592 8.1625522.466668 6.9297242-6.9295608 13.7019809-2.9363472z" fill="#00c425"/><path d="m12.36 87.2898625v28.4737105h6.9288667l11.5868837-.962921-.8143373-9.809251z" fill="#3af23a"/><path d="m19.2888667 115.763573h28.4747091v-6.929237l-3.0277786-9.2181311-7.744518-1.5544152z" fill="#006446"/><path d="m47.7635758 108.834336v-28.4743364h-6.9292412l-10.7728128 10.7722293z" fill="#008a44"/></g></svg>