<?xml version="1.0" encoding="UTF-8"?>
<svg width="192px" height="192px" viewBox="0 0 192 192" version="1.1" xmlns="http://www.w3.org/2000/svg" xmlns:xlink="http://www.w3.org/1999/xlink">
    <title>tripp-lite</title>
    <g id="tripp-lite" stroke="none" stroke-width="1" fill="none" fill-rule="evenodd">
        <g id="SanDisk_Logo_2007" transform="translate(24.000000, 82.000000)" fill="#EC1B24" fill-rule="nonzero">
            <path d="M69.7536792,0 L65.1540681,0 C65.1540681,0 64.6054924,0.334319623 64.6054924,1.17014966 C64.6054924,2.17313608 65.1540681,2.38208498 65.1540681,2.38208498 L69.2472963,2.38208498 C75.1550575,2.38208498 78.9106949,6.31044555 78.9106949,14.041796 C78.9106949,22.3582144 75.2394501,25.9522415 68.6987206,25.9522415 L66.0402347,25.9522415 C65.660451,25.9522415 65.322867,25.4925443 65.322867,25.241796 C65.322867,23.6955273 65.322867,13.9164184 65.322867,13.1223878 C65.322867,9.11044899 62.5377749,6.89552038 58.064763,6.89552038 C55.0264933,6.89552038 52.8743833,8.2328333 51.6506397,10.531347 C51.6506397,9.77910201 51.6506397,8.39999656 51.6506397,8.0238844 C51.6506397,7.64776536 51.3974482,7.43880268 51.102064,7.43880268 C50.7644731,7.43880268 43.506376,7.43880268 43.506376,7.43880268 C43.506376,7.43880268 43,7.85671426 43,8.65074488 C43,9.48656804 43.4641832,9.82089455 43.4641832,9.82089455 C43.4641832,9.82089455 44.645734,9.82089455 45.1943097,9.82089455 C45.6162862,9.82089455 46.1226691,10.2805987 46.1226691,10.823881 C46.1226691,11.2835851 46.1226691,25.241796 46.1226691,25.241796 C46.1226691,25.5761225 45.7006857,25.910449 45.4053014,25.910449 L43.7595674,25.910449 L43.0421997,28 C47.9793879,28 53.8871422,28 53.8871422,28 C53.8871422,28 54.2669189,27.6656735 54.2669189,26.9134285 C54.2669189,26.202983 53.8871422,25.910449 53.8871422,25.910449 L52.5789991,25.910449 C52.1992154,25.910449 51.9460239,25.617915 51.9460239,25.2835816 L51.9460239,14.041796 C53.0009756,11.1582144 55.068693,9.48656804 56.7988196,9.48656804 C58.4023539,9.48656804 59.4151127,10.6985034 59.4151127,12.4955204 C59.4151127,13.4149286 59.4151127,23.4447789 59.4151127,25.1164184 C59.4151127,25.5761225 59.0775218,25.910449 58.7821376,25.910449 L57.220803,25.910449 C57.220803,25.910449 56.7988196,26.202983 56.7988196,26.9134285 C56.7988196,27.6656735 57.220803,28 57.220803,28 L70.0068637,28 C82.7085389,28 86,20.4358266 86,14.041796 C86,3.88656804 78.9106949,0 69.7536792,0" id="path3926"></path>
            <path d="M41.3347233,26.5791483 C39.9625746,26.4517376 39.7962554,25.6447871 39.7962554,24.7104258 L39.7962554,13.4980631 C39.7962554,11.8841689 39.2141348,9.97296692 37.8835745,8.82624991 C36.1787943,7.382239 33.7255744,7 31.6049859,7 C28.8191276,7 26.6569645,7.33975945 24.4116453,8.10424446 C24.1621631,8.23165513 24.0790001,8.44401091 24.0790001,8.78377735 C24.0790001,9.93049437 24.0790001,10.5675617 24.0790001,11.8841689 C24.0790001,12.1389973 24.2453261,12.3088735 24.4532199,12.3088735 C24.4532199,12.3088735 25.4927234,12.3088735 25.6174611,12.3088735 C25.8669433,12.3088735 26.1164255,12.1814628 26.2827447,11.9266345 C26.9480214,11.0347458 27.7380495,10.3127404 28.4033262,9.93049437 C28.9854468,9.63320047 29.9417941,9.25096147 30.8981277,9.25096147 C33.1850353,9.25096147 34.1413689,10.9498077 34.1413689,12.9459408 L34.1413689,16.0463254 C25.5342981,15.5366758 22,18.1274107 22,22.2471016 C22,27.0038599 25.2016665,29 28.3617447,29 C31.1891846,29 33.3513545,27.8957555 34.5155956,26.1969093 C34.765071,27.6833928 35.6382553,28.7026991 36.7609149,28.7026991 C37.3430355,28.7026991 39.0893972,28.7026991 41.2515602,28.7026991 L42,26.5791483 L41.3347233,26.5791483 L41.3347233,26.5791483 Z M34.1413689,23.4787567 C33.2681915,24.6679463 31.8544681,25.6447871 30.316014,25.6447871 C28.3617447,25.6447871 27.2390851,24.6679463 27.2390851,22.4169848 C27.2390851,19.7837774 28.4449078,18.382239 34.1413689,18.382239 L34.1413689,23.4787567" id="path3928"></path>
            <path d="M100.607376,25.8658553 L98.1207985,25.8658553 C97.728189,25.8658553 97.5100606,25.6524401 97.5100606,25.3109786 C97.5100606,25.3109786 97.5100606,8.28049106 97.5100606,7.81097627 C97.5100606,7.29878406 97.3355722,7 96.7248271,7 C96.1140963,7 89.0906061,7 89.0906061,7 C89.0906061,7 88.5671123,7.46950776 88.5671123,8.19512218 C88.5671123,8.87805215 89.0906061,9.39024436 89.0906061,9.39024436 C89.0906061,9.39024436 91.053697,9.39024436 91.2281926,9.39024436 C91.3590624,9.39024436 91.4899394,9.47561324 91.4899394,9.68902842 C91.4899394,9.9024436 91.4899394,25.2682942 91.4899394,25.2682942 C91.4899394,25.6097556 91.1845669,25.8658553 90.92282,25.8658553 L88.4798753,25.8658553 C88.4798753,25.8658553 88,26.1646323 88,26.8902397 C88,27.5731767 88.4798753,28 88.4798753,28 L100.607376,28 C100.607376,28 101,27.5731767 101,26.8902397 C101,26.2073167 100.607376,25.8658553 100.607376,25.8658553" id="path3930"></path>
            <path d="M9.53586243,10.5300147 C5.48522494,9.12884305 4.68353656,7.93997053 4.68353656,6.28404545 C4.68353656,4.50072968 6.32911586,2.67495967 9.87341323,2.67495967 C11.0970436,2.67495967 12.3628696,3.099558 13.586493,3.86383219 C14.3037971,4.33089175 15.1054855,5.09517293 15.9915581,6.62371432 C16.0759493,6.79355225 16.2869203,6.87847471 16.4135001,6.87847471 C16.7510509,6.87847471 17.6793191,6.87847471 17.6793191,6.87847471 C17.8480945,6.87847471 17.9324857,6.75109801 17.9324857,6.53879186 C17.9324857,5.64714796 17.9324857,3.18448046 17.9324857,1.69839331 C17.9324857,1.44363291 17.7637103,1.27379498 17.5105437,1.14641828 C15.1054855,0.382137096 12.7426159,0 9.6202536,0 C3.83965954,0 0,3.31185716 0,8.36456187 C0,13.3323581 3.75526837,15.4128745 8.60759423,16.9414299 C11.7299566,17.875542 15.4008407,19.1917982 15.4008407,22.248895 C15.4008407,24.074665 13.7130797,26.1976496 10.3797464,26.1976496 C7.84809449,26.1976496 6.16034046,25.2635375 5.18986972,24.2445029 C4.1772173,23.2254753 3.24894911,22.248895 2.36286955,20.3806707 C2.27847837,20.1683646 2.10970297,19.9560724 1.89873198,19.9560724 C1.39239882,19.9560724 0.421941984,19.9136112 0.421941984,19.9136112 C0.210964041,19.9560724 0.0421886372,20.0834561 0.0421886372,20.3806777 C0.0421886372,21.5695503 0.0421886372,24.7115695 0.0421886372,26.0278187 C0.0421886372,26.2401179 0.168775403,26.5797937 0.379746395,26.7071774 C3.29113774,28.3631025 7.04640611,29 10.1687754,29 C15.7383915,28.9575388 20,25.2635445 20,19.3191819 C20,12.950221 14.1772173,12.1434926 9.53586243,10.5300217" id="path3932"></path>
            <path d="M111.505377,15.1702143 C107.204304,14.1489367 106.301074,13.3829872 106.301074,11.8936219 C106.301074,10.61703 107.419351,9.25532882 109.698925,9.25532882 C111.935486,9.25532882 114,10.5744683 114.989253,12.0638336 C115.118282,12.2766001 115.290325,12.3617095 115.548391,12.3617095 C115.935488,12.3617095 116.408602,12.3617095 116.623656,12.3617095 C116.838718,12.3617095 116.924735,12.2340454 116.924735,12.1063883 C116.924735,11.9787242 116.924735,9.51064298 116.924735,8.40426293 C116.924735,8.14894176 116.795698,7.89362059 116.494626,7.8085182 C114.860216,7.34043056 112.365595,7 109.655912,7 C106,7 102.043005,9.08511003 102.043005,13.5106443 C102.043005,17.3404267 105.139784,19.4255368 107.806447,20.1063839 C112.365595,21.340421 113.698926,21.9787204 113.698926,23.8936187 C113.698926,25.5531888 112.365595,26.5744664 110.086021,26.5744664 C107.763442,26.5744664 105.612905,24.9148893 104.365591,21.893618 C104.150537,21.5957422 104.021507,21.5106398 103.806446,21.5106398 C103.204302,21.4680851 102.559139,21.5106398 102.387096,21.5106398 C102.172042,21.5106398 102,21.5957422 102,21.893618 C102,22.9574504 102,25.9787287 102,26.2765976 C102,26.6170211 102.473121,26.9574517 102.473121,26.9574517 C102.473121,26.9574517 103.76344,27.7659559 105.225809,28.2765982 C106.473116,28.6595764 107.978497,29 110.086021,29 C115.462367,29 118,25.7234075 118,21.8510633 C118,18.4042521 116.021512,16.2340467 111.505377,15.1702143" id="path3934"></path>
            <path d="M91.4655408,5 L97.056747,5 C97.3698583,5 97.5934998,4.86363915 97.6829623,4.59090998 L98.9801241,0.5 C99.0695792,0.181824445 98.8459303,0 98.5328264,0 L92.6732401,0 C92.3601362,0 92.1812186,0.181824445 92.1364873,0.454553624 L91.062967,4.18181995 C90.8840568,4.63636609 91.1076982,5 91.4655408,5" id="path3936"></path>
            <path d="M143.913186,25.9552802 C142.659163,25.9552802 141.73955,25.5379916 141.196143,24.7451445 C140.945337,24.3695861 134.424438,14.4381469 134.257236,14.1877723 C135.929253,11.9344151 136.765275,11.0581144 138.228295,10.3069976 C139.189703,9.80624854 140.987133,9.43069014 142.324753,9.43069014 C142.324753,9.43069014 142.617361,9.18031558 142.617361,8.47092903 C142.617361,7.71981224 142.324753,7.42771432 142.324753,7.42771432 L135.762051,7.46944456 C135.511252,7.46944456 135.218644,7.63635864 134.967845,7.97019367 C134.842439,8.17883111 129.700962,15.5230987 128.321539,17.4843512 C128.321539,10.3487279 128.321539,0.918037746 128.321539,0.751116792 C128.321539,0.333828158 128.070733,0.0417302384 127.61093,0.0417302384 C127.109319,0.0417302384 119.418001,0 119.418001,0 C119.418001,0 119,0.333835032 119,1.00149135 C119,1.71088478 119.418001,2.08645005 119.418001,2.08645005 C119.418001,2.08645005 121.758838,2.08645005 122.051439,2.08645005 C122.385842,2.08645005 122.511242,2.25335725 122.511242,2.58718541 C122.511242,2.92102044 122.511242,25.4128215 122.511242,25.4128215 C122.511242,25.7466427 122.344047,25.9135637 122.135036,25.9135637 L119.626998,25.9135637 C119.626998,25.9135637 119.208997,26.2473919 119.208997,26.9150482 C119.208997,27.5827182 119.626998,28 119.626998,28 L130.53697,28 C130.53697,28 130.87138,27.5409811 130.87138,26.9150482 C130.87138,26.2891221 130.53697,25.9135637 130.53697,25.9135637 L128.781349,25.9135637 C128.530543,25.9135637 128.321539,25.7049194 128.321539,25.4545448 C128.321539,25.4545448 128.321539,23.2429247 128.321539,20.1549902 C128.823144,19.6125177 129.784559,18.6527635 129.868163,18.5275727 C130.202567,18.1937377 130.578772,18.3189284 130.745981,18.6110332 C130.996787,18.9448614 135.13504,25.329361 135.218644,25.4962819 C135.427655,25.7883799 135.302241,25.9552939 135.093245,25.9552939 L133.797427,25.9552939 C133.797427,25.9552939 133.463016,26.4560362 133.463016,26.9567853 C133.463016,27.4992578 133.755624,28 133.755624,28 L144.66559,28 C144.66559,28 145,27.5827182 145,26.9985087 C145,26.4143128 144.581992,25.9552939 144.581992,25.9552939 C144.581992,25.9552939 144.289391,25.9552939 143.913186,25.9552939" id="path3938"></path>
        </g>
    </g>
</svg>