<svg height="192" viewBox="0 0 192 192" width="192" xmlns="http://www.w3.org/2000/svg"><g fill="none" fill-rule="nonzero"><path d="m66.7609043 104c1.4550802 0 2.5708883.476035 3.3002773 1.712837h.0416001v-1.423657h2.8962939v9.98695h.0009244c0 1.753767-.6434154 4.72387-5.7472897 4.72387-2.1881671 0-4.7377931-.989441-4.8875536-3.423004h3.0238676c.2764098 1.093546 1.1990083 1.463697 2.2722918 1.463697 1.6926632 0 2.4655013-1.114011 2.4423901-2.639993v-1.402302h-.0425246c-.6656021 1.113122-1.9931087 1.649662-3.3233885 1.649662-3.3233885 0-4.7377931-2.433562-4.7377931-5.366295 0-2.766342 1.6501387-5.281765 4.7609043-5.281765zm-36.4654071-5c3.2230855 0 6.1841088 1.390743 6.1841088 4.918324h-3.2855701c-.1091148-1.838953-1.4296846-2.31022-3.051486-2.31022-1.0818227 0-2.3352448.450055-2.3352448 1.731973 0 1.178627.7348933 1.328953 4.6070724 2.312987 1.1247226.278517 4.5856225.982189 4.5856225 4.447979 0 2.799009-2.2270625 4.898957-6.4237884 4.898957-3.4189327 0-6.6177704-1.668338-6.5758032-5.433858h3.2874353c0 2.033547 1.6003515 2.821143 3.4180001 2.821143 1.1890723 0 3.0067209-.338464 3.0067209-1.902588 0-1.645283-2.3147275-1.922878-4.5846899-2.522336-2.2942101-.60038-4.6089376-1.475589-4.6089376-4.343766 0-3.120872 2.9843384-4.618595 5.77656-4.618595zm13.3358884 5c3.7530311 0 5.5642686 2.986709 5.3518849 6.194462h-7.9538149v.00087c.0836663 1.817959 1.0233032 2.642959 2.7067427 2.642959 1.2154599 0 2.1973896-.704035 2.3886269-1.349763h2.6672081c-.8541318 2.461076-2.6672081 3.511472-5.1606477 3.511472-3.4762888 0-5.6313856-2.260047-5.6313856-5.491297 0-3.130301 2.2819753-5.508703 5.6313856-5.508703zm12.0215098 0c2.2477974 0 4.9547515.465622 4.9547515 2.963446v5.432551c0 .948651.107262 1.898172.3923531 2.318537h-3.1425883c-.1110256-.320278-.1957061-.664055-.2192285-1.006092-.9813532.948651-2.4209221 1.291558-3.797451 1.291558-2.1377128 0-3.8407322-.989556-3.8407322-3.130548 0-2.361184 1.9194252-2.926023 3.8407322-3.171454 1.8996664-.259356 3.6657258-.198433 3.6657258-1.369887 0-1.230635-.9164315-1.410792-2.0078693-1.410792-1.1780002 0-1.9429476.442994-2.0511505 1.572672l-3.0974382-.000991.0200754-.217626c.2982742-2.51043 2.822119-3.271374 5.28282-3.271374zm24.4874195 0c2.0439767 0 4.5029089.465622 4.5029089 2.963446v5.432551c0 .948651.1009583 1.898172.3567762 2.318537h-2.855065c-.1001027-.320278-.1779603-.664055-.1993498-1.006092-.8923682.948651-2.2022587 1.291558-3.4531143 1.291558-1.9447296 0-3.4924709-.989556-3.4924709-3.130548 0-2.361184 1.747091-2.926023 3.4924709-3.171454 1.7282683-.259356 3.3333333-.198433 3.3333333-1.369887 0-1.230635-.8324777-1.410792-1.8249486-1.410792-1.0711841 0-1.7650582.442994-1.8651609 1.572672l-2.8196947-.000991.0196182-.22377c.2758752-2.505528 2.5689481-3.26523 4.8046967-3.26523zm9.668776-3v3.202417h2.1909091v1.960445h-2.1909091v5.286613c0 .990016.25 1.239301 1.2645455 1.239301.3154545 0 .6090909-.021367.9263636-.083689v2.291638c-.5054545.082798-1.16.103275-1.7509091.103275-1.8345454 0-3.4354545-.416661-3.4354545-2.540922v-6.296216h-1.8136364v-1.960445h1.8136364v-3.202417zm7.8231024 3c3.7517307 0 5.5650667 2.986709 5.3508137 6.194462h-7.9521973v.00087c.0827587 1.817959 1.0225304 2.642959 2.7062114 2.642959 1.2156342 0 2.1958657-.704035 2.3880499-1.349763h2.665752c-.852416 2.461076-2.665752 3.511472-5.1586297 3.511472-3.4786265 0-5.6321933-2.260047-5.6321933-5.491297 0-3.130301 2.2823027-5.508703 5.6321933-5.508703zm-40.1238536 5.610966h-.0009408c-.5240784.422977-1.6155163.443864-2.5733471.604874-.9615944.181027-1.8356855.484769-1.8356855 1.533507 0 1.071367.8966726 1.330723 1.9006073 1.330723 2.3480027 0 2.5017315-1.663775 2.5090466-2.336671zm24.3191757 0h-.0008556c-.4757016.422977-1.469028.443864-2.3391512.604874-.8744011.181027-1.6666667.484769-1.6666667 1.533507 0 1.071367.8127994 1.330723 1.7257016 1.330723 2.1288501 0 2.2733649-1.656626 2.2806338-2.332316zm-14.3178087-3.402519c-1.7130011 0-2.4655013 1.444122-2.4655013 3.032388 0 1.529541.5990419 3.200558 2.4655013 3.200558 1.7361123 0 2.593075-1.426326 2.593075-2.953197 0-1.734192-.6203042-3.279749-2.593075-3.279749zm-23.9656651-.048479c-1.9197278 0-2.4732126 1.412421-2.5155054 2.219146h4.9252788c-.2776618-1.451582-.9387175-2.219146-2.4097734-2.219146zm53.9998757 0c-1.9181641 0-2.4726478 1.412421-2.5131076 2.219146h4.9259852c-.2777016-1.451582-.9397717-2.219146-2.4128776-2.219146z" fill="#000"/><path d="m137.095087 73.7141576c11.808317 0 22.186759 7.9863587 25.231615 19.4161957.20299.7667119-.245914 1.5513587-1.011375 1.7540217-.76099.2053533-1.543442-.2483967-1.748221-1.014212-2.713096-10.1806793-11.954971-17.2918206-22.472019-17.2918206-12.827741 0-23.263414 10.4676359-23.263414 23.3313587 0 9.0211959 5.274173 17.3214129 13.43224 21.1442119.715385.33538 1.023895 1.188179.689452 1.905571-.333548.714701-1.182173 1.023179-1.897557.690489-9.162289-4.29-15.081202-13.611603-15.081202-23.7402719 0-14.4437772 11.718894-26.1955435 26.120481-26.1955435zm-.001789 4.7186413c5.722183 0 11.101875 2.2319837 15.146481 6.2888315.558.5586685.558 1.4661685 0 2.0275272-.558.5586685-1.46475.5586685-2.021856 0-3.50449-3.5161141-8.16701-5.4548641-13.124625-5.4548641-10.232683 0-18.560654 8.3522282-18.560654 18.6127174 0 10.2640761 8.327971 18.6154071 18.560654 18.6154071.50524 0 1.037308-.026005 1.62124-.075326.785135-.068152 1.478164.514729 1.544337 1.304756.068856.78644-.513288 1.481413-1.299317 1.549565-.667096.057391-1.276068.08519-1.865366.08519-11.808317 0-21.417721-9.633668-21.417721-21.4786954 0-11.8405435 9.609404-21.4733152 21.416827-21.4751087zm.000894-9.4327989c16.997539 0 30.823241 13.8653804 30.823241 30.9079076 0 2.8605974-.392568 5.7256794-1.197375 8.5244024-.218193.761331-1.010481 1.199837-1.768789.979239-.756519-.218804-1.195586-1.011522-.9765-1.771957.727904-2.538668 1.088279-5.134728 1.088279-7.7316844-.002683-15.4633696-12.546952-28.0437228-27.968856-28.0437228-15.420115 0-27.966173 12.5803532-27.966173 28.0437228 0 5.7974184 1.749116 11.3589944 5.057769 16.0857064.451587.651033.295097 1.540598-.351432 1.996141-.644741.454647-1.5345.299511-1.988769-.350625-3.647568-5.210054-5.575529-11.34375-5.575529-17.7312224 0-17.0425272 13.828384-30.9079076 30.824134-30.9079076zm0 14.1469565c1.458491 0 2.916087.1919022 4.326289.5694294.762779.2053532 1.214365.99 1.010481 1.7540217-.201202.7640217-.986337 1.2195652-1.748222 1.014212-1.170548-.3120653-2.377759-.4734783-3.588548-.4734783-7.640307 0-13.857 6.2350272-13.857 13.8958696 0 7.6635321 6.216693 13.8985601 13.857 13.8985601 2.860645 0 5.60951-.868941 7.947029-2.51625.645635-.451957 1.535394-.296821 1.987875.351521.454269.646549.298673 1.540598-.350538 1.996142-2.820404 1.98269-6.136212 3.032771-9.584366 3.032771-9.215942 0-16.713173-7.520054-16.713173-16.7618474 0-9.2417935 7.497231-16.7600543 16.713173-16.7609511zm-3.106557 5.1284511c.76099-.2053533 1.544336.2492935 1.750009 1.014212.202991.7640217-.247702 1.5486684-1.010481 1.7540217-3.994528 1.068913-6.784528 4.7177446-6.784528 8.8669565 0 5.0629892 4.106307 9.1799182 9.153346 9.1799182 3.542048 0 6.798836-2.082228 8.298461-5.302418.330866-.717391 1.183068-1.026766 1.89577-.691386.71449.33538 1.024788 1.189973.692134 1.905571-1.969096 4.221847-6.243519 6.954212-10.887259 6.954212-6.625356 0-12.010414-5.405544-12.010414-12.0467939 0-5.4432065 3.660981-10.2273098 8.902962-11.6342935z" fill="#5a9a98"/></g></svg>