<svg height="195" viewBox="0 0 195 195" width="195" xmlns="http://www.w3.org/2000/svg"><path d="m73.4827277 111.889886c-6.15 0-11.8588637-1.844318-15.6695455-5.264659-2.8789773-2.584091-4.2623864-6.094091-4.2623864-9.7067043 0-3.5686363 1.4430682-7.1028409 4.2620455-9.6732954 3.5389773-3.2253409 9.7871591-5.2452273 15.6698864-5.2452273 6.51 0 11.7204545 1.6397727 15.7036363 5.2540909 2.8339773 2.5718182 4.2040909 6.0903409 4.2040909 9.6647727 0 3.4646594-1.4539772 7.1543184-4.2040909 9.7063634-3.7090909 3.4425-9.5379545 5.264659-15.7036363 5.264659v-3.942272c3.2642045 0 6.2921591-1.127046 8.4068181-3.231137 2.1-2.089772 3.0784091-4.658522 3.0784091-7.7979543 0-3.0075-1.0554545-5.8193182-3.0784091-7.8136363-2.0863636-2.055-5.1865909-3.2113637-8.4068181-3.2113637-3.2301137 0-6.3323864 1.1444318-8.4204546 3.2113637-2.0120454 1.9936363-3.0702273 4.8136363-3.0702273 7.8136363 0 2.9907955 1.0704546 5.8090913 3.0702273 7.7982953 2.0897727 2.078864 5.1811364 3.231137 8.4204546 3.231137v3.942272zm-44.9502273-29.8755678c-3.2897727 0-7.0271591.6153409-10.2027273 2.0335227-2.9307954 1.3077273-5.3297741 3.4227273-5.3297741 6.9289773-.0013623 3.1578409 2.0055696 5.0072727 1.9510241 4.9561363.8536364.7857955 2.2278409 2.1238637 5.8206818 2.9096591 1.6056819.3511364 5.0386364.8904546 8.4572728 1.2477274 3.3934091.357955 6.7329545.698182 8.0931818 1.0425 1.0806818.275114 2.8960227.649773 2.8960227 2.686364 0 2.028409-1.9125 2.6475-2.2448864 2.781818-.3320454.13125-2.6263636 1.183977-6.7506818 1.183977-3.045 0-6.7056818-.915682-8.04-1.392954-1.5381818-.5475-3.1517045-1.271591-4.6568182-3.110114-.3743181-.455796-.9647727-1.709318-.9647727-2.950568h-3.7326136v10.459091h4.1488636v-1.413069c0-.160909.2011364-.822613.8976137-.507954.8665909.39375 3.4104545 1.406591 6.0702272 1.961932 2.1807955.456136 3.5870455.783068 6.2982955.783068 4.4236363 0 6.8001136-.720682 8.4429545-1.189773 1.5477273-.443182 3.4602273-1.238863 5.01375-2.477727.8413637-.669886 2.6863637-2.387046 2.6863637-5.503977 0-2.9918186-1.6056819-4.8487505-2.1705682-5.4136368-.7694318-.7697727-1.7093182-1.3663637-2.68875-1.82625-.8532955-.4015909-2.1998864-.8839773-3.3017046-1.1536364-2.1385227-.525-6.9739772-1.1727273-9.2863636-1.4147727-2.4248864-.2532955-6.6313636-.6017046-8.3113636-1.1215909-.5093182-.1578409-1.5477273-.6525-1.5477273-1.8579546 0-.8573863.4748864-1.5842045 1.4134091-2.1715909 1.4897727-.9334091 4.4989773-1.5136363 7.6356818-1.5136363 3.7084091-.0136364 6.8488636.8342045 8.8465909 1.7273863.6794318.3034091 1.4744318.7390909 2.1057955 1.2545455.7125.5809091 1.7127272 1.7880682 2.0744318 3.4718182h3.3511363v-9.1043182h-3.7418181v1.0581818c0 .3415909-.3528409.7854545-1.02.4186364-1.6745455-.8785228-6.4090909-2.7739773-12.2134091-2.7818182m82.0009094 1.6544318 18.252954 16.472727-.1875-11.0907952c-.018409-1.4543182-.286363-2.0614773-1.859318-2.0614773h-3.431932v-3.3177272h15.606818v3.3177272h-3.347727c-1.604318 0-1.705568.5130682-1.725 2.0614773l.282955 21.1919322h-5.344773l-21.023864-18.7636367.004432 13.3165907c.018409 1.4475.08625 2.129318 1.577727 2.129318h3.748296v3.316364h-15.3272729v-3.316023h3.5829549c1.338409 0 1.285227-1.276022 1.285227-2.205v-15.5434088c0-1.0032955-.140795-2.1852273-2.242159-2.1852273h-2.9072729v-3.3228409zm46.215 23.25c.146591 0 .797727-.01875.923863-.057273.360341-.1125.604773-.369545.717955-.6375.047727-.1125.071591-.610227.071591-.718295l.002727-5.243182c0-.126136-.009205-.180682-.223295-.4615909-.235228-.3068182-9.560796-10.875-9.987614-11.3403409-.530114-.5778409-1.460796-1.4710227-2.874886-1.4710227h-3.243069v-3.319091h18.302387v3.315h-2.206364c-.510341 0-.849545.484091-.413523 1.0220455 0 0 6.157841 7.3660227 6.216137 7.4430682.057272.0784091.106363.0971591.184772.0255682.077046-.0732955 6.312273-7.4011364 6.361364-7.4590909.296591-.3552273.095455-1.027841-.54375-1.027841h-2.263295v-3.31875h15v3.31875h-3.351137c-1.215682 0-1.710341.225-2.625 1.2589773-.418295.4731818-9.843409 11.23125-10.099772 11.5227273-.134319.1523864-.122728.3647729-.122728.4909089v5.2425c0 .106364.023864.604773.071591.716591.113523.269318.359318.526364.719318.6375.126137.038864.768409.057955.914659.057955h3.427841v3.318409h-18.207954v-3.31875l3.248863.002727z"/></svg>