<svg xmlns="http://www.w3.org/2000/svg" id="author" x="0" y="0" width="32" height="32" viewBox="0 0 32 32" style=" fill:currentColor;">
  <path d="M 16 5 C 12.145666 5 9 8.1456661 9 12 C 9 14.450073 10.345521 16.510309 12.261719 17.761719 C 8.0572865 19.3114 5 23.277903 5 28 L 7 28 C 7 23.045455 11.045455 19 16 19 C 18.933334 19 21.543831 20.423265 23.189453 22.609375 L 19.099609 26.699219 L 18 32 L 23.300781 30.900391 L 31.099609 23.099609 C 31.699609 22.499609 32 21.75 32 21 C 32 20.25 31.699609 19.500391 31.099609 18.900391 C 30.499609 18.300391 29.75 18 29 18 C 28.25 18 27.500391 18.300391 26.900391 18.900391 L 24.605469 21.195312 C 23.348618 19.643471 21.665814 18.457259 19.753906 17.75 C 21.660948 16.496972 23 14.443072 23 12 C 23 8.1456661 19.854334 5 16 5 z M 16 7 C 18.773666 7 21 9.2263339 21 12 C 21 14.773666 18.773666 17 16 17 C 13.226334 17 11 14.773666 11 12 C 11 9.2263339 13.226334 7 16 7 z M 29 20 C 29.25 20 29.499219 20.100781 29.699219 20.300781 C 30.099219 20.700781 30.099219 21.299219 29.699219 21.699219 L 22.300781 29.099609 L 20.599609 29.400391 L 20.900391 27.699219 L 28.300781 20.300781 C 28.500781 20.100781 28.75 20 29 20 z"></path>
</svg>
