<svg id="media" fill="currentColor" viewBox="0 0 32 32" xmlns="http://www.w3.org/2000/svg">
<path fill="black" d="m10 2v7h2v-5h2v1h2v-1h9v1h2v-1h2v12h-2v-1h-2v3h6v-16zm4 5v2h2v-2zm11 0v2h2v-2zm-23 4v18h21v-18zm23 0v2h2v-2zm-21 2h17v9.78125l-2.59375-2.59375-.71875-.6875-2.8125 2.8125-4.28125-4.3125-.6875-.71875-5.90625 5.90625zm11.5 2c-.829 0-1.5.671-1.5 1.5s.671 1.5 1.5 1.5 1.5-.671 1.5-1.5-.671-1.5-1.5-1.5zm-5.5957031 5.125 5.0000001 5 .689453-.71875 2.09375-2.09375 3.3125 3.3125v1.375h-17v-.96875z"></path>
</svg>
